<svg width="40" height="40" viewBox="0 0 40 40" fill="none" xmlns="http://www.w3.org/2000/svg">
<g clip-path="url(#clip0_6008_16172)">
<path d="M20 40C31.0457 40 40 31.0457 40 20C40 8.9543 31.0457 0 20 0C8.9543 0 0 8.9543 0 20C0 31.0457 8.9543 40 20 40Z" fill="#6DA544"/>
<path d="M11.3048 23.9121C11.3048 25.3528 12.4728 26.5208 13.9135 26.5208H21.7396C21.7396 27.7214 22.7129 28.6947 23.9135 28.6947H26.5222C27.7228 28.6947 28.6961 27.7214 28.6961 26.5208V23.9121H11.3048Z" fill="#F0F0F0"/>
<path d="M28.9124 11.3047V17.3916C28.9124 18.3506 28.1322 19.1308 27.1732 19.1308V21.7394C29.5706 21.7394 31.521 19.789 31.521 17.3916V11.3047H28.9124Z" fill="#F0F0F0"/>
<path d="M10.2173 17.3916C10.2173 18.3506 9.4371 19.1308 8.47812 19.1308V21.7394C10.8755 21.7394 12.8259 19.789 12.8259 17.3916V11.3047H10.2173V17.3916Z" fill="#F0F0F0"/>
<path d="M27.6091 11.3047H25.0004V17.3916H27.6091V11.3047Z" fill="#F0F0F0"/>
<path d="M21.0868 14.783C21.0868 15.0227 20.8917 15.2177 20.652 15.2177C20.4123 15.2177 20.2172 15.0227 20.2172 14.783V11.3047H17.6086V14.783C17.6086 15.0227 17.4135 15.2177 17.1738 15.2177C16.9341 15.2177 16.739 15.0227 16.739 14.783V11.3047H14.1303V14.783C14.1303 16.4612 15.4956 17.8265 17.1738 17.8265C17.8201 17.8265 18.4195 17.6234 18.9129 17.2784C19.4063 17.6233 20.0058 17.8265 20.6521 17.8265C20.7822 17.8265 20.9102 17.8173 21.0361 17.8013C20.8512 18.563 20.1653 19.1308 19.3477 19.1308V21.7394C21.7451 21.7394 23.6955 19.789 23.6955 17.3916V14.783V11.3047H21.0869V14.783H21.0868Z" fill="#F0F0F0"/>
<path d="M18.0433 19.1309H14.1303V21.7395H18.0433V19.1309Z" fill="#F0F0F0"/>
</g>
<defs>
<clipPath id="clip0_6008_16172">
<rect width="40" height="40" fill="white"/>
</clipPath>
</defs>
</svg>
