<svg width="144" height="82" viewBox="0 0 144 82" fill="none" xmlns="http://www.w3.org/2000/svg">
<path d="M141.736 78.2841C142.091 78.7075 142.722 78.7634 143.145 78.4088C143.569 78.0542 143.624 77.4235 143.27 77.0001L141.736 78.2841ZM10.4017 2.6001C10.23 2.07517 9.66537 1.78877 9.14043 1.96043C8.6155 2.13207 8.3291 2.69677 8.50076 3.2217L10.4017 2.6001ZM24.0261 14.8522C24.4506 15.2056 25.0811 15.1479 25.4345 14.7235C25.7878 14.299 25.7302 13.6685 25.3057 13.3151L24.0261 14.8522ZM0.659504 19.5291C0.733889 20.0764 1.23781 20.4597 1.78507 20.3853C2.33232 20.3109 2.71567 19.807 2.6413 19.2598L0.659504 19.5291ZM142.503 77.6421C143.27 77.0001 143.27 76.9998 143.269 76.9995C143.269 76.9993 143.269 76.9988 143.268 76.9984C143.268 76.9974 143.267 76.9962 143.265 76.9945C143.263 76.9913 143.259 76.9867 143.254 76.9807C143.244 76.9688 143.229 76.9515 143.21 76.929C143.171 76.8839 143.115 76.8179 143.041 76.7324C142.893 76.5615 142.676 76.3125 142.394 75.997C141.83 75.3661 141.006 74.4683 139.964 73.395C137.882 71.2495 134.92 68.3957 131.405 65.5663C124.434 59.9547 115.053 54.2477 105.957 54.7032L106.057 56.7007C114.356 56.2851 123.224 61.5481 130.151 67.1243C133.586 69.8889 136.487 72.6834 138.529 74.7879C139.55 75.8395 140.355 76.7171 140.903 77.3302C141.177 77.6367 141.387 77.8771 141.528 78.0398C141.598 78.1212 141.651 78.1832 141.686 78.2244C141.703 78.245 141.716 78.2604 141.725 78.2704C141.729 78.2754 141.732 78.279 141.734 78.2813C141.735 78.2825 141.736 78.2833 141.736 78.2837C141.736 78.284 141.736 78.2841 141.737 78.2842C141.737 78.2842 141.736 78.2841 142.503 77.6421ZM105.957 54.7032C96.8074 55.1614 90.6955 61.3904 84.9972 67.2389C79.1838 73.2056 73.8151 78.7498 65.9942 79.1415L66.0942 81.139C74.8377 80.7011 80.7522 74.4618 86.4297 68.6346C92.2225 62.6891 97.8096 57.1137 106.057 56.7007L105.957 54.7032ZM65.9942 79.1415C58.1741 79.5331 49.0219 74.9398 39.397 62.8617C29.783 50.7973 19.8216 31.4076 10.4017 2.6001L8.50076 3.2217C17.9578 32.1429 28.0108 51.7826 37.8329 64.1081C47.644 76.4199 57.3499 81.5769 66.0942 81.139L65.9942 79.1415ZM24.6659 14.0837C25.3057 13.3151 25.3057 13.3151 25.3056 13.315C25.3055 13.3149 25.3053 13.3148 25.3051 13.3146C25.3047 13.3142 25.304 13.3137 25.3032 13.313C25.3016 13.3117 25.2991 13.3096 25.2958 13.3069C25.2893 13.3015 25.2796 13.2934 25.2668 13.2827C25.2411 13.2614 25.2031 13.2297 25.1534 13.1884C25.0541 13.1059 24.9083 12.9848 24.7222 12.8303C24.3501 12.5214 23.8168 12.0793 23.1718 11.5462C21.8821 10.48 20.1454 9.04916 18.3582 7.59141C16.5718 6.1343 14.7318 4.64756 13.2365 3.47057C12.4893 2.88247 11.8237 2.36808 11.2917 1.97209C10.7845 1.59457 10.3366 1.2771 10.0576 1.12863L9.11829 2.89436C9.23867 2.95839 9.5616 3.17754 10.0975 3.57642C10.6085 3.95683 11.2581 4.45863 11.9995 5.04213C13.4811 6.20836 15.3106 7.68654 17.094 9.14122C18.8767 10.5953 20.6098 12.0231 21.8975 13.0877C22.5413 13.6199 23.0736 14.0611 23.4449 14.3693C23.6306 14.5234 23.7759 14.6442 23.8749 14.7264C23.9243 14.7675 23.9622 14.799 23.9877 14.8202C24.0004 14.8308 24.01 14.8388 24.0165 14.8442C24.0197 14.8469 24.0221 14.8489 24.0237 14.8502C24.0245 14.8509 24.0251 14.8514 24.0255 14.8517C24.0257 14.8519 24.0259 14.852 24.026 14.8521C24.0261 14.8522 24.0261 14.8522 24.6659 14.0837ZM10.0576 1.12863C9.53571 0.851055 9.03318 1.01601 8.74757 1.17461C8.46553 1.33122 8.22443 1.56514 8.02924 1.78635C7.62847 2.24055 7.20167 2.8975 6.7744 3.64516C5.90997 5.15784 4.92949 7.24633 4.01759 9.38481C3.10334 11.5288 2.24518 13.7532 1.6274 15.5507C1.31902 16.448 1.06624 17.2513 0.896289 17.891C0.811561 18.2099 0.743608 18.5022 0.700318 18.7528C0.662381 18.9724 0.623431 19.2637 0.659504 19.5291L2.6413 19.2598C2.64986 19.3228 2.63637 19.2945 2.67114 19.0933C2.70053 18.9231 2.75252 18.6933 2.82923 18.4046C2.98212 17.8291 3.21821 17.0754 3.51881 16.2008C4.11903 14.4544 4.95939 12.275 5.85731 10.1693C6.75754 8.05821 7.70285 6.05142 8.51087 4.63748C8.91983 3.92184 9.26596 3.40762 9.5289 3.10961C9.66558 2.95472 9.72903 2.91728 9.71851 2.92312C9.70443 2.93094 9.44039 3.0657 9.11829 2.89436L10.0576 1.12863Z" fill="#FFCA29"/>
</svg>
