<svg width="41" height="41" viewBox="0 0 41 41" fill="none" xmlns="http://www.w3.org/2000/svg">
<path d="M20.5 22.7206C20.2779 22.7206 20.0558 22.6694 19.8508 22.5498L4.76622 13.8203C4.15122 13.4615 3.94619 12.6757 4.30494 12.0607C4.66369 11.4457 5.44955 11.2406 6.04747 11.5994L20.4829 19.9531L34.8329 11.6507C35.4479 11.2919 36.2337 11.514 36.5754 12.112C36.9341 12.727 36.7121 13.5127 36.1142 13.8715L21.132 22.5498C20.9441 22.6523 20.722 22.7206 20.5 22.7206Z" fill="#20419C"/>
<path d="M20.5 38.198C19.7996 38.198 19.2188 37.6171 19.2188 36.9167V21.4221C19.2188 20.7217 19.7996 20.1409 20.5 20.1409C21.2004 20.1409 21.7812 20.7217 21.7812 21.4221V36.9167C21.7812 37.6171 21.2004 38.198 20.5 38.198Z" fill="#20419C"/>
<path d="M20.4996 38.8645C18.9963 38.8645 17.4929 38.5399 16.3313 37.8737L7.20876 32.8171C4.73167 31.4504 2.78418 28.1533 2.78418 25.3175L2.78418 15.6482C2.78418 12.8124 4.73167 9.53249 7.20876 8.14874L16.3313 3.09203C18.6546 1.77661 22.3104 1.77661 24.6508 3.09203L33.7733 8.14874C36.2504 9.5154 38.1979 12.8124 38.1979 15.6482V25.3175C38.1979 25.4883 38.1979 25.6249 38.1638 25.7957C38.0783 26.2399 37.7538 26.6157 37.3267 26.7524C36.8996 26.9062 36.4212 26.8037 36.0625 26.5133C34.0979 24.805 31.0571 24.7366 28.99 26.3937C27.6746 27.4358 26.9058 29.0245 26.9058 30.7157C26.9058 31.7237 27.1792 32.7146 27.7088 33.5687C27.8454 33.8079 27.9821 33.9958 28.1358 34.1837C28.3921 34.4741 28.4946 34.867 28.4263 35.2429C28.3579 35.6187 28.1188 35.9433 27.7771 36.1312L24.6508 37.8566C23.4892 38.5399 22.0029 38.8645 20.4996 38.8645ZM20.4996 4.69787C19.4404 4.69787 18.3642 4.91996 17.5954 5.34704L8.47291 10.4037C6.81582 11.3092 5.38083 13.7691 5.38083 15.6482L5.38083 25.3175C5.38083 27.1966 6.83291 29.6566 8.47291 30.5621L17.5954 35.6187C19.15 36.4899 21.8662 36.4899 23.4208 35.6187L25.3342 34.5595C24.7021 33.4149 24.3604 32.0824 24.3604 30.7157C24.3604 28.2216 25.4709 25.9154 27.4013 24.3779C29.7246 22.5158 33.0558 22.1228 35.6525 23.2332V15.6141C35.6525 13.735 34.2004 11.275 32.5604 10.3695L23.4379 5.31284C22.635 4.91993 21.5588 4.69787 20.4996 4.69787Z" fill="#20419C"/>
<path d="M32.4583 38.8647C29.6225 38.8647 26.9575 37.3613 25.5225 34.9184C24.7538 33.6884 24.3438 32.2363 24.3438 30.7501C24.3438 28.2559 25.4542 25.9496 27.3846 24.4121C28.8196 23.2675 30.6304 22.6355 32.4583 22.6355C36.9342 22.6355 40.5729 26.2742 40.5729 30.7501C40.5729 32.2363 40.1629 33.6884 39.3942 34.9355C38.9842 35.653 38.4204 36.3022 37.7712 36.8488C36.3533 38.1472 34.4571 38.8647 32.4583 38.8647ZM32.4583 25.198C31.1942 25.198 29.9983 25.625 28.9904 26.4279C27.675 27.47 26.9063 29.0588 26.9063 30.7501C26.9063 31.758 27.1796 32.7488 27.7092 33.603C28.7171 35.3113 30.4938 36.3022 32.4583 36.3022C33.8079 36.3022 35.1063 35.8068 36.0971 34.9184C36.5413 34.5426 36.9171 34.0984 37.1904 33.6201C37.7371 32.7488 38.0104 31.758 38.0104 30.7501C38.0104 27.6922 35.5163 25.198 32.4583 25.198Z" fill="#EF233C"/>
<path d="M34.2859 33.8078C33.9613 33.8078 33.6367 33.6882 33.3805 33.432L29.7759 29.8274C29.2804 29.332 29.2804 28.512 29.7759 28.0166C30.2713 27.5212 31.0913 27.5212 31.5867 28.0166L35.1913 31.6211C35.6867 32.1166 35.6867 32.9366 35.1913 33.432C34.935 33.6882 34.6105 33.8078 34.2859 33.8078Z" fill="#EF233C"/>
<path d="M30.6305 33.8591C30.3059 33.8591 29.9813 33.7395 29.7251 33.4832C29.2297 32.9878 29.2297 32.1678 29.7251 31.6724L33.3297 28.0679C33.8251 27.5724 34.6451 27.5724 35.1405 28.0679C35.6359 28.5633 35.6359 29.3833 35.1405 29.8787L31.5359 33.4832C31.2797 33.7395 30.9551 33.8591 30.6305 33.8591Z" fill="#EF233C"/>
</svg>
