<svg width="20" height="20" viewBox="0 0 20 20" fill="none" xmlns="http://www.w3.org/2000/svg">
<path d="M2.6416 6.2002L9.99992 10.4585L17.3082 6.22517" stroke="white" stroke-width="1.5" stroke-linecap="round" stroke-linejoin="round"/>
<path d="M10 18.0085V10.4502" stroke="white" stroke-width="1.5" stroke-linecap="round" stroke-linejoin="round"/>
<path d="M8.27453 2.06675L3.82453 4.54177C2.8162 5.10011 1.99121 6.50009 1.99121 7.65009V12.3584C1.99121 13.5084 2.8162 14.9084 3.82453 15.4668L8.27453 17.9418C9.22453 18.4668 10.7829 18.4668 11.7329 17.9418L16.1829 15.4668C17.1912 14.9084 18.0162 13.5084 18.0162 12.3584V7.65009C18.0162 6.50009 17.1912 5.10011 16.1829 4.54177L11.7329 2.06675C10.7745 1.53341 9.22453 1.53341 8.27453 2.06675Z" stroke="white" stroke-width="1.5" stroke-linecap="round" stroke-linejoin="round"/>
<path d="M14.1671 11.0334V7.98345L6.25879 3.41675" stroke="white" stroke-width="1.5" stroke-linecap="round" stroke-linejoin="round"/>
</svg>
