<svg width="24" height="24" viewBox="0 0 24 24" fill="none" xmlns="http://www.w3.org/2000/svg">
<path d="M12 18.95C9.38 18.95 7.25 16.82 7.25 14.2C7.25 11.58 9.38 9.45001 12 9.45001C14.62 9.45001 16.75 11.58 16.75 14.2C16.75 16.82 14.62 18.95 12 18.95ZM12 10.95C10.21 10.95 8.75 12.41 8.75 14.2C8.75 15.99 10.21 17.45 12 17.45C13.79 17.45 15.25 15.99 15.25 14.2C15.25 12.41 13.79 10.95 12 10.95Z" fill="#818181"/>
<path d="M10.9999 15.95C10.7499 15.95 10.4999 15.82 10.3599 15.59C10.1499 15.23 10.2599 14.77 10.6199 14.56L11.3799 14.1C11.4599 14.06 11.4999 13.97 11.4999 13.89V12.96C11.4999 12.55 11.8399 12.21 12.2499 12.21C12.6599 12.21 12.9999 12.54 12.9999 12.95V13.88C12.9999 14.49 12.6699 15.07 12.1499 15.38L11.3899 15.84C11.2699 15.92 11.1299 15.95 10.9999 15.95Z" fill="#818181"/>
<path d="M16 22.75H7.99998C3.37998 22.75 2.51998 20.6 2.29998 18.51L1.54998 10.5C1.43998 9.45001 1.40998 7.90001 2.44998 6.74001C3.34998 5.74001 4.83998 5.26001 6.99998 5.26001H17C19.17 5.26001 20.66 5.75001 21.55 6.74001C22.59 7.90001 22.56 9.45001 22.45 10.51L21.7 18.5C21.48 20.6 20.62 22.75 16 22.75ZM6.99998 6.75001C5.30998 6.75001 4.14998 7.08001 3.55998 7.74001C3.06998 8.28001 2.90998 9.11001 3.03998 10.35L3.78998 18.36C3.95998 19.94 4.38998 21.25 7.99998 21.25H16C19.6 21.25 20.04 19.94 20.21 18.35L20.96 10.36C21.09 9.11001 20.93 8.28001 20.44 7.74001C19.85 7.08001 18.69 6.75001 17 6.75001H6.99998Z" fill="#818181"/>
<path d="M16 6.75C15.59 6.75 15.25 6.41 15.25 6V5.2C15.25 3.42 15.25 2.75 12.8 2.75H11.2C8.75 2.75 8.75 3.42 8.75 5.2V6C8.75 6.41 8.41 6.75 8 6.75C7.59 6.75 7.25 6.41 7.25 6V5.2C7.25 3.44 7.25 1.25 11.2 1.25H12.8C16.75 1.25 16.75 3.44 16.75 5.2V6C16.75 6.41 16.41 6.75 16 6.75Z" fill="#818181"/>
<path d="M16.01 14.39C15.67 14.39 15.37 14.16 15.28 13.82C15.18 13.42 15.42 13.01 15.82 12.91C17.77 12.42 19.58 11.57 21.2 10.39C21.53 10.15 22 10.22 22.25 10.56C22.49 10.89 22.42 11.36 22.08 11.61C20.3 12.9 18.32 13.83 16.18 14.37C16.13 14.38 16.07 14.39 16.01 14.39Z" fill="#818181"/>
<path d="M7.99999 14.42C7.93999 14.42 7.87999 14.41 7.81999 14.4C5.80999 13.91 3.91999 13.06 2.18999 11.88C1.84999 11.65 1.75999 11.18 1.98999 10.84C2.21999 10.5 2.68999 10.41 3.02999 10.64C4.60999 11.72 6.32999 12.49 8.16999 12.94C8.56999 13.04 8.81999 13.44 8.71999 13.85C8.64999 14.19 8.33999 14.42 7.99999 14.42Z" fill="#818181"/>
</svg>
