<svg width="41" height="41" viewBox="0 0 41 41" fill="none" xmlns="http://www.w3.org/2000/svg">
<path d="M13.6665 9.82275C12.9661 9.82275 12.3853 9.24192 12.3853 8.5415V3.4165C12.3853 2.71609 12.9661 2.13525 13.6665 2.13525C14.3669 2.13525 14.9478 2.71609 14.9478 3.4165V8.5415C14.9478 9.24192 14.3669 9.82275 13.6665 9.82275Z" fill="#20419C"/>
<path d="M27.3335 9.82275C26.6331 9.82275 26.0522 9.24192 26.0522 8.5415V3.4165C26.0522 2.71609 26.6331 2.13525 27.3335 2.13525C28.0339 2.13525 28.6147 2.71609 28.6147 3.4165V8.5415C28.6147 9.24192 28.0339 9.82275 27.3335 9.82275Z" fill="#20419C"/>
<path d="M14.5208 24.7709C14.2987 24.7709 14.0767 24.7197 13.8717 24.6343C13.6496 24.5489 13.4788 24.4293 13.3079 24.2755C13.0004 23.9509 12.8125 23.5068 12.8125 23.0626C12.8125 22.6184 13.0004 22.1743 13.3079 21.8497C13.4788 21.696 13.6667 21.5763 13.8717 21.4909C14.2817 21.3201 14.76 21.3201 15.17 21.4909C15.375 21.5763 15.5629 21.696 15.7337 21.8497C15.8021 21.9351 15.8875 22.0205 15.9387 22.1059C16.0071 22.2084 16.0584 22.3109 16.0925 22.4134C16.1438 22.5159 16.1779 22.6184 16.195 22.7209C16.2121 22.8405 16.2292 22.9601 16.2292 23.0626C16.2292 23.5068 16.0412 23.9509 15.7337 24.2755C15.5629 24.4293 15.375 24.5489 15.17 24.6343C14.965 24.7197 14.7429 24.7709 14.5208 24.7709Z" fill="#20419C"/>
<path d="M20.4998 24.7708C20.2778 24.7708 20.0557 24.7196 19.8507 24.6341C19.6286 24.5487 19.4578 24.4291 19.2869 24.2754C18.9794 23.9508 18.7915 23.5066 18.7915 23.0625C18.7915 22.96 18.8086 22.8403 18.8257 22.7208C18.8427 22.6183 18.8769 22.5158 18.9281 22.4133C18.9623 22.3108 19.0136 22.2083 19.0819 22.1058C19.1503 22.0204 19.2186 21.935 19.2869 21.8496C19.919 21.2175 21.0636 21.2175 21.7127 21.8496C21.7811 21.935 21.8494 22.0204 21.9177 22.1058C21.9861 22.2083 22.0374 22.3108 22.0715 22.4133C22.1228 22.5158 22.1569 22.6183 22.174 22.7208C22.1911 22.8403 22.2082 22.96 22.2082 23.0625C22.2082 23.5066 22.0202 23.9508 21.7127 24.2754C21.3882 24.5829 20.9611 24.7708 20.4998 24.7708Z" fill="#20419C"/>
<path d="M14.5208 30.7499C14.2987 30.7499 14.0767 30.6987 13.8717 30.6133C13.6667 30.5279 13.4788 30.4083 13.3079 30.2545C13.0004 29.9299 12.8125 29.4858 12.8125 29.0416C12.8125 28.9391 12.8296 28.8195 12.8466 28.717C12.8637 28.5974 12.8979 28.4949 12.9491 28.3924C12.9833 28.2899 13.0346 28.1874 13.1029 28.0849C13.1542 27.9995 13.2396 27.9141 13.3079 27.8287C13.4788 27.675 13.6667 27.5553 13.8717 27.4699C14.2817 27.2991 14.76 27.2991 15.17 27.4699C15.375 27.5553 15.5629 27.675 15.7337 27.8287C15.8021 27.9141 15.8875 27.9995 15.9387 28.0849C16.0071 28.1874 16.0584 28.2899 16.0925 28.3924C16.1438 28.4949 16.1779 28.5974 16.195 28.717C16.2121 28.8195 16.2292 28.9391 16.2292 29.0416C16.2292 29.4858 16.0412 29.9299 15.7337 30.2545C15.5629 30.4083 15.375 30.5279 15.17 30.6133C14.965 30.6987 14.7429 30.7499 14.5208 30.7499Z" fill="#20419C"/>
<path d="M35.0207 16.8101H5.979C5.27859 16.8101 4.69775 16.2292 4.69775 15.5288C4.69775 14.8284 5.27859 14.2476 5.979 14.2476L35.0207 14.2476C35.7211 14.2476 36.3019 14.8284 36.3019 15.5288C36.3019 16.2292 35.7211 16.8101 35.0207 16.8101Z" fill="#20419C"/>
<path d="M27.0259 38.9157C26.3767 38.9157 25.7617 38.6766 25.3176 38.2324C24.788 37.7028 24.5488 36.9341 24.6684 36.1312L24.993 33.8249C25.0784 33.227 25.4372 32.5095 25.8643 32.0824L31.9117 26.0349C32.7317 25.2149 33.5347 24.7878 34.4059 24.7024C35.4822 24.5999 36.5242 25.0441 37.515 26.0349C38.5571 27.077 39.958 29.1953 37.515 31.6382L31.4676 37.6857C31.0405 38.1128 30.323 38.4716 29.7251 38.557L27.4188 38.8816C27.2821 38.8987 27.1626 38.9157 27.0259 38.9157ZM34.6963 27.2479C34.6792 27.2479 34.6621 27.2479 34.6451 27.2479C34.4059 27.2649 34.0813 27.487 33.7225 27.8457L27.6751 33.8932C27.6238 33.9445 27.5384 34.1153 27.5384 34.1837L27.2309 36.3191L29.3663 36.0116C29.4347 35.9945 29.6055 35.9091 29.6567 35.8578L35.7042 29.8104C36.4559 29.0587 36.5584 28.6828 35.7042 27.8287C35.4309 27.5724 35.038 27.2479 34.6963 27.2479Z" fill="#FFCA29"/>
<path d="M35.7384 32.8853C35.6188 32.8853 35.4992 32.8683 35.3967 32.8341C33.1417 32.202 31.3479 30.4083 30.7159 28.1533C30.5279 27.4699 30.9208 26.7695 31.6042 26.5645C32.2875 26.3766 32.9879 26.7695 33.1929 27.4529C33.5858 28.8537 34.6963 29.9641 36.0971 30.357C36.7804 30.5449 37.1733 31.2624 36.9854 31.9458C36.8146 32.5095 36.3021 32.8853 35.7384 32.8853Z" fill="#FFCA29"/>
<path d="M20.5 38.8644H13.6667C7.43125 38.8644 3.84375 35.2769 3.84375 29.0415L3.84375 14.5207C3.84375 8.28525 7.43125 4.69775 13.6667 4.69775H27.3333C33.5688 4.69775 37.1562 8.28525 37.1562 14.5207V20.4998C37.1562 21.2003 36.5754 21.7811 35.875 21.7811C35.1746 21.7811 34.5938 21.2003 34.5938 20.4998V14.5207C34.5938 9.63484 32.2192 7.26025 27.3333 7.26025L13.6667 7.26025C8.78083 7.26025 6.40625 9.63484 6.40625 14.5207L6.40625 29.0415C6.40625 33.9273 8.78083 36.3019 13.6667 36.3019H20.5C21.2004 36.3019 21.7813 36.8828 21.7813 37.5832C21.7813 38.2836 21.2004 38.8644 20.5 38.8644Z" fill="#20419C"/>
</svg>
