<svg width="22" height="22" viewBox="0 0 22 22" fill="none" xmlns="http://www.w3.org/2000/svg">
<path d="M15.9958 20.8538C14.96 20.8538 13.8692 20.6063 12.7417 20.1297C11.6417 19.6622 10.5325 19.0205 9.45084 18.2413C8.37834 17.453 7.34251 16.573 6.36168 15.6105C5.39001 14.6297 4.51001 13.5938 3.73084 12.5305C2.94251 11.4305 2.31001 10.3305 1.86084 9.26717C1.38418 8.13051 1.14584 7.03051 1.14584 5.99467C1.14584 5.27967 1.27418 4.60134 1.52168 3.96884C1.77834 3.31801 2.19084 2.71301 2.75001 2.19051C3.45584 1.49384 4.26251 1.14551 5.12418 1.14551C5.48168 1.14551 5.84834 1.22801 6.16001 1.37467C6.51751 1.53967 6.82001 1.78717 7.04001 2.11717L9.16668 5.11467C9.35918 5.38051 9.50584 5.63717 9.60668 5.89384C9.72584 6.16884 9.79001 6.44384 9.79001 6.70967C9.79001 7.05801 9.68918 7.39717 9.49668 7.71801C9.35918 7.96551 9.14834 8.23134 8.88251 8.49717L8.25918 9.14801C8.26834 9.17551 8.27751 9.19384 8.28668 9.21217C8.39668 9.40467 8.61668 9.73467 9.03834 10.2297C9.48751 10.743 9.90918 11.2105 10.3308 11.6413C10.8717 12.173 11.3208 12.5947 11.7425 12.943C12.265 13.383 12.6042 13.603 12.8058 13.7038L12.7875 13.7497L13.4567 13.0897C13.7408 12.8055 14.0158 12.5947 14.2817 12.4572C14.7858 12.1455 15.4275 12.0905 16.0692 12.3563C16.3075 12.4572 16.5642 12.5947 16.8392 12.7872L19.8825 14.9505C20.2217 15.1797 20.4692 15.473 20.6158 15.8213C20.7533 16.1697 20.8175 16.4905 20.8175 16.8113C20.8175 17.2513 20.7167 17.6913 20.5242 18.1038C20.3317 18.5163 20.0933 18.8738 19.7908 19.2038C19.2683 19.7813 18.7 20.1938 18.04 20.4597C17.4075 20.7163 16.72 20.8538 15.9958 20.8538ZM5.12418 2.52051C4.62001 2.52051 4.15251 2.74051 3.70334 3.18051C3.28168 3.57467 2.98834 4.00551 2.80501 4.47301C2.61251 4.94967 2.52084 5.45384 2.52084 5.99467C2.52084 6.84717 2.72251 7.77301 3.12584 8.72634C3.53834 9.69801 4.11584 10.7063 4.84918 11.7147C5.58251 12.723 6.41668 13.7038 7.33334 14.6297C8.25001 15.5372 9.24001 16.3805 10.2575 17.123C11.2475 17.8472 12.265 18.4338 13.2733 18.8555C14.8408 19.5247 16.3075 19.6805 17.5175 19.1763C17.985 18.9838 18.3975 18.6905 18.7733 18.2688C18.9842 18.0397 19.1492 17.7922 19.2867 17.4988C19.3967 17.2697 19.4517 17.0313 19.4517 16.793C19.4517 16.6463 19.4242 16.4997 19.3508 16.3347C19.3233 16.2797 19.2683 16.1788 19.0942 16.0597L16.0508 13.8963C15.8675 13.768 15.7025 13.6763 15.5467 13.6122C15.345 13.5297 15.2625 13.4472 14.9508 13.6397C14.7675 13.7313 14.6025 13.8688 14.4192 14.0522L13.7225 14.7397C13.365 15.088 12.815 15.1705 12.3933 15.0147L12.1458 14.9047C11.77 14.703 11.33 14.3913 10.8442 13.9788C10.4042 13.603 9.92751 13.163 9.35001 12.5947C8.90084 12.1363 8.45168 11.6505 7.98418 11.1097C7.55334 10.6055 7.24168 10.1747 7.04918 9.81717L6.93918 9.54217C6.88418 9.33134 6.86584 9.21217 6.86584 9.08384C6.86584 8.75384 6.98501 8.46051 7.21418 8.23134L7.90168 7.51634C8.08501 7.33301 8.22251 7.15884 8.31418 7.00301C8.38751 6.88384 8.41501 6.78301 8.41501 6.69134C8.41501 6.61801 8.38751 6.50801 8.34168 6.39801C8.27751 6.25134 8.17668 6.08634 8.04834 5.91217L5.92168 2.90551C5.83001 2.77717 5.72001 2.68551 5.58251 2.62134C5.43584 2.55717 5.28001 2.52051 5.12418 2.52051ZM12.7875 13.7588L12.6408 14.3822L12.8883 13.7405C12.8425 13.7313 12.8058 13.7405 12.7875 13.7588Z" fill="#20419C"/>
</svg>
