<svg width="23" height="22" viewBox="0 0 23 22" fill="none" xmlns="http://www.w3.org/2000/svg">
<path d="M3.85244 15.2444C3.67828 15.2444 3.50411 15.1802 3.36661 15.0427C3.10078 14.7769 3.10078 14.3369 3.36661 14.071L14.3208 3.11686C14.5866 2.85102 15.0266 2.85102 15.2924 3.11686C15.5583 3.38269 15.5583 3.82269 15.2924 4.08852L4.33828 15.0519C4.20994 15.1802 4.02661 15.2444 3.85244 15.2444Z" fill="#20419C"/>
<path d="M10.425 17.4444C10.2508 17.4444 10.0766 17.3802 9.93912 17.2427C9.67329 16.9769 9.67329 16.5369 9.93912 16.2711L11.0391 15.1711C11.305 14.9052 11.745 14.9052 12.0108 15.1711C12.2766 15.4369 12.2766 15.8769 12.0108 16.1427L10.9108 17.2427C10.7825 17.3711 10.6083 17.4444 10.425 17.4444Z" fill="#20419C"/>
<path d="M12.8908 14.9781C12.7166 14.9781 12.5424 14.9139 12.4049 14.7764C12.1391 14.5106 12.1391 14.0706 12.4049 13.8048L14.5958 11.6139C14.8616 11.3481 15.3016 11.3481 15.5674 11.6139C15.8333 11.8798 15.8333 12.3198 15.5674 12.5856L13.3766 14.7764C13.2483 14.9048 13.0649 14.9781 12.8908 14.9781Z" fill="#20419C"/>
<path d="M10.425 20.8542C9.52667 20.8542 8.62833 20.3042 7.5375 19.2133L3.03667 14.7125C0.845836 12.5217 0.855003 11.11 3.06417 8.90084L9.15084 2.81417C11.36 0.605003 12.7717 0.595836 14.9625 2.78667L19.4633 7.2875C21.6542 9.47834 21.645 10.89 19.4358 13.0992L13.3492 19.1858C12.24 20.295 11.3325 20.8542 10.425 20.8542ZM12.075 2.52084C11.5983 2.52084 10.9933 2.915 10.1225 3.78584L4.03584 9.8725C3.165 10.7433 2.77084 11.3483 2.77084 11.8158C2.77084 12.2925 3.1375 12.87 4.00834 13.7408L8.50917 18.2417C9.38 19.1125 9.94834 19.4792 10.425 19.4792C10.425 19.4792 10.425 19.4792 10.4342 19.4792C10.9108 19.4792 11.5067 19.085 12.3775 18.2142L18.4642 12.1275C19.335 11.2567 19.7292 10.6517 19.7292 10.1842C19.7292 9.7075 19.3625 9.13 18.4917 8.25917L13.9908 3.75834C13.1292 2.8875 12.5517 2.52084 12.075 2.52084Z" fill="#20419C"/>
<path d="M20.4166 20.854H2.08325C1.70742 20.854 1.39575 20.5423 1.39575 20.1665C1.39575 19.7907 1.70742 19.479 2.08325 19.479H20.4166C20.7924 19.479 21.1041 19.7907 21.1041 20.1665C21.1041 20.5423 20.7924 20.854 20.4166 20.854Z" fill="#20419C"/>
</svg>
