<svg width="20" height="20" viewBox="0 0 20 20" fill="none" xmlns="http://www.w3.org/2000/svg">
<path d="M9.99999 18.9584C5.05832 18.9584 1.04166 14.9417 1.04166 10.0001C1.04166 5.05841 5.05832 1.04175 9.99999 1.04175C14.9417 1.04175 18.9583 5.05841 18.9583 10.0001C18.9583 14.9417 14.9417 18.9584 9.99999 18.9584ZM9.99999 2.29175C5.74999 2.29175 2.29166 5.75008 2.29166 10.0001C2.29166 14.2501 5.74999 17.7084 9.99999 17.7084C14.25 17.7084 17.7083 14.2501 17.7083 10.0001C17.7083 5.75008 14.25 2.29175 9.99999 2.29175Z" fill="#20419C"/>
<path d="M13.0917 13.275C12.9833 13.275 12.875 13.25 12.775 13.1833L10.1917 11.6416C9.55001 11.2583 9.07501 10.4166 9.07501 9.67497V6.2583C9.07501 5.91663 9.35835 5.6333 9.70001 5.6333C10.0417 5.6333 10.325 5.91663 10.325 6.2583V9.67497C10.325 9.97497 10.575 10.4166 10.8333 10.5666L13.4167 12.1083C13.7167 12.2833 13.8083 12.6666 13.6333 12.9666C13.5083 13.1666 13.3 13.275 13.0917 13.275Z" fill="#20419C"/>
</svg>
