<svg width="20" height="20" viewBox="0 0 20 20" fill="none" xmlns="http://www.w3.org/2000/svg">
<path d="M11.6667 5.62484H8.33335C7.53335 5.62484 6.04169 5.62484 6.04169 3.33317C6.04169 1.0415 7.53335 1.0415 8.33335 1.0415H11.6667C12.4667 1.0415 13.9584 1.0415 13.9584 3.33317C13.9584 4.13317 13.9584 5.62484 11.6667 5.62484ZM8.33335 2.2915C7.50835 2.2915 7.29169 2.2915 7.29169 3.33317C7.29169 4.37484 7.50835 4.37484 8.33335 4.37484H11.6667C12.7084 4.37484 12.7084 4.15817 12.7084 3.33317C12.7084 2.2915 12.4917 2.2915 11.6667 2.2915H8.33335Z" fill="#20419C"/>
<path d="M12.5 18.9582H7.5C2.81667 18.9582 1.875 16.8082 1.875 13.3332V8.3332C1.875 4.5332 3.25 2.9082 6.63333 2.7332C6.975 2.71653 7.275 2.97486 7.29167 3.32486C7.30833 3.67486 7.04167 3.9582 6.7 3.97486C4.33333 4.1082 3.125 4.81653 3.125 8.3332V13.3332C3.125 16.4165 3.73333 17.7082 7.5 17.7082H12.5C16.2667 17.7082 16.875 16.4165 16.875 13.3332V8.3332C16.875 4.81653 15.6667 4.1082 13.3 3.97486C12.9583 3.9582 12.6917 3.6582 12.7083 3.31653C12.725 2.97486 13.025 2.7082 13.3667 2.72486C16.75 2.9082 18.125 4.53319 18.125 8.32486V13.3249C18.125 16.8082 17.1833 18.9582 12.5 18.9582Z" fill="#20419C"/>
</svg>
