<svg width="20" height="21" viewBox="0 0 20 21" fill="none" xmlns="http://www.w3.org/2000/svg">
<g clip-path="url(#clip0_6127_4591)">
<path d="M20 11.006C20 5.44931 15.5233 0.945312 10 0.945312C4.47667 0.945312 0 5.44931 0 11.006C0 16.0286 3.656 20.1906 8.43733 20.9453V13.9146H5.89867V11.0053H8.43733V8.78931C8.43733 6.26798 9.93 4.87465 12.2147 4.87465C13.308 4.87465 14.4533 5.07131 14.4533 5.07131V7.54731H13.1913C11.9493 7.54731 11.5627 8.32331 11.5627 9.11931V11.006H14.336L13.8927 13.914H11.5627V20.9453C16.344 20.1906 20 16.0286 20 11.006Z" fill="#A7A7A7"/>
</g>
<defs>
<clipPath id="clip0_6127_4591">
<rect width="20" height="20" fill="white" transform="translate(0 0.945312)"/>
</clipPath>
</defs>
</svg>
