<svg width="16" height="18" viewBox="0 0 16 18" fill="none" xmlns="http://www.w3.org/2000/svg">
<path d="M7.11671 17.875C6.71671 17.875 6.32504 17.775 5.95837 17.575C5.22504 17.1667 4.78337 16.425 4.78337 15.5917V11.175C4.78337 10.7583 4.50837 10.1333 4.25004 9.81667L1.13337 6.51667C0.608374 5.99167 0.208374 5.09167 0.208374 4.41667V2.5C0.208374 1.16667 1.21671 0.125 2.50004 0.125H13.5C14.7667 0.125 15.7917 1.15 15.7917 2.41667V4.25C15.7917 5.125 15.2667 6.11667 14.775 6.60833L11.1667 9.8C10.8167 10.0917 10.5417 10.7333 10.5417 11.25V14.8333C10.5417 15.575 10.075 16.4333 9.49171 16.7833L8.34171 17.525C7.96671 17.7583 7.54171 17.875 7.11671 17.875ZM2.50004 1.375C1.91671 1.375 1.45837 1.86667 1.45837 2.5V4.41667C1.45837 4.725 1.70837 5.325 2.02504 5.64167L5.20004 8.98333C5.62504 9.50833 6.04171 10.3833 6.04171 11.1667V15.5833C6.04171 16.125 6.41671 16.3917 6.57504 16.475C6.92504 16.6667 7.35004 16.6667 7.67504 16.4667L8.83337 15.725C9.06671 15.5833 9.30004 15.1333 9.30004 14.8333V11.25C9.30004 10.3583 9.73337 9.375 10.3584 8.85L13.925 5.69167C14.2084 5.40833 14.55 4.73333 14.55 4.24167V2.41667C14.55 1.84167 14.0834 1.375 13.5084 1.375H2.50004Z" fill="white"/>
</svg>
