<svg width="40" height="40" viewBox="0 0 40 40" fill="none" xmlns="http://www.w3.org/2000/svg">
<g clip-path="url(#clip0_6008_16186)">
<path d="M20 40C31.0457 40 40 31.0457 40 20C40 8.9543 31.0457 0 20 0C8.9543 0 0 8.9543 0 20C0 31.0457 8.9543 40 20 40Z" fill="#F0F0F0"/>
<path d="M4.13448 7.82227C2.56346 9.86625 1.37885 12.2221 0.689087 14.7814H11.0936L4.13448 7.82227Z" fill="#0052B4"/>
<path d="M39.3117 14.7813C38.6219 12.2221 37.4373 9.86625 35.8663 7.82227L28.9073 14.7813H39.3117Z" fill="#0052B4"/>
<path d="M0.689087 25.2168C1.37893 27.776 2.56354 30.1319 4.13448 32.1758L11.0934 25.2168H0.689087Z" fill="#0052B4"/>
<path d="M32.1759 4.13297C30.1319 2.56195 27.7761 1.37734 25.2168 0.6875V11.092L32.1759 4.13297Z" fill="#0052B4"/>
<path d="M7.82324 35.8632C9.86723 37.4342 12.2231 38.6188 14.7823 39.3087V28.9043L7.82324 35.8632Z" fill="#0052B4"/>
<path d="M14.7822 0.6875C12.223 1.37734 9.86715 2.56195 7.82324 4.13289L14.7822 11.0919V0.6875Z" fill="#0052B4"/>
<path d="M25.2168 39.3087C27.776 38.6188 30.1319 37.4342 32.1758 35.8633L25.2168 28.9043V39.3087Z" fill="#0052B4"/>
<path d="M28.9073 25.2168L35.8663 32.1758C37.4373 30.1319 38.6219 27.776 39.3117 25.2168H28.9073Z" fill="#0052B4"/>
<path d="M39.8307 17.3913H22.6088H22.6087V0.169297C21.7548 0.058125 20.8841 0 20 0C19.1157 0 18.2452 0.058125 17.3913 0.169297V17.3912V17.3913H0.169297C0.058125 18.2452 0 19.1159 0 20C0 20.8843 0.058125 21.7548 0.169297 22.6087H17.3912H17.3913V39.8307C18.2452 39.9419 19.1157 40 20 40C20.8841 40 21.7548 39.942 22.6087 39.8307V22.6088V22.6087H39.8307C39.9419 21.7548 40 20.8843 40 20C40 19.1159 39.9419 18.2452 39.8307 17.3913Z" fill="#D80027"/>
<path d="M25.2174 25.2188L34.1421 34.1435C34.5525 33.7332 34.9441 33.3042 35.3177 32.8595L27.6769 25.2188H25.2174V25.2188Z" fill="#D80027"/>
<path d="M14.7826 25.2188H14.7824L5.85779 34.1434C6.2681 34.5538 6.69708 34.9454 7.14177 35.319L14.7826 27.678V25.2188Z" fill="#D80027"/>
<path d="M14.7823 14.7823V14.7822L5.8576 5.85742C5.44713 6.26773 5.05557 6.69672 4.68198 7.14141L12.3228 14.7823H14.7823V14.7823Z" fill="#D80027"/>
<path d="M25.2174 14.784L34.1421 5.85914C33.7318 5.44867 33.3029 5.05711 32.8582 4.68359L25.2174 12.3245V14.784Z" fill="#D80027"/>
</g>
<defs>
<clipPath id="clip0_6008_16186">
<rect width="40" height="40" fill="white"/>
</clipPath>
</defs>
</svg>
