<svg width="25" height="24" viewBox="0 0 25 24" fill="none" xmlns="http://www.w3.org/2000/svg">
<path d="M12.5 18.75C12.09 18.75 11.75 18.41 11.75 18V15C11.75 14.59 12.09 14.25 12.5 14.25C12.91 14.25 13.25 14.59 13.25 15V18C13.25 18.41 12.91 18.75 12.5 18.75Z" fill="#818181"/>
<path d="M18.1 22.5601H6.9C5.08 22.5601 3.42 21.1601 3.12 19.3701L1.79 11.4001C1.57 10.1601 2.18 8.57007 3.17 7.78007L10.1 2.23007C11.44 1.15007 13.55 1.16007 14.9 2.24007L21.83 7.78007C22.81 8.57007 23.41 10.1601 23.21 11.4001L21.88 19.3601C21.58 21.1301 19.88 22.5601 18.1 22.5601ZM12.49 2.93007C11.96 2.93007 11.43 3.09007 11.04 3.40007L4.11 8.96007C3.55 9.41007 3.15 10.4501 3.27 11.1601L4.6 19.1201C4.78 20.1701 5.83 21.0601 6.9 21.0601H18.1C19.17 21.0601 20.22 20.1701 20.4 19.1101L21.73 11.1501C21.84 10.4501 21.44 9.39007 20.89 8.95007L13.96 3.41007C13.56 3.09007 13.02 2.93007 12.49 2.93007Z" fill="#818181"/>
</svg>
