<svg width="21" height="21" viewBox="0 0 21 21" fill="none" xmlns="http://www.w3.org/2000/svg">
<g clip-path="url(#clip0_6127_4592)">
<path d="M20.6667 2.4159V19.4747C20.6667 19.8647 20.5118 20.2388 20.236 20.5146C19.9602 20.7904 19.5862 20.9453 19.1962 20.9453H2.13734C1.74731 20.9453 1.37326 20.7904 1.09747 20.5146C0.821685 20.2388 0.666748 19.8647 0.666748 19.4747L0.666748 2.4159C0.666748 2.02588 0.821685 1.65183 1.09747 1.37604C1.37326 1.10025 1.74731 0.945313 2.13734 0.945313L19.1962 0.945312C19.5862 0.945312 19.9602 1.10025 20.236 1.37604C20.5118 1.65183 20.6667 2.02588 20.6667 2.4159ZM6.5491 8.59237H3.60792V18.0041H6.5491V8.59237ZM6.81381 5.35708C6.81536 5.1346 6.77307 4.914 6.68936 4.70786C6.60566 4.50173 6.48216 4.3141 6.32594 4.1557C6.16972 3.99729 5.98383 3.87121 5.77888 3.78464C5.57392 3.69808 5.35393 3.65273 5.13145 3.65119H5.07851C4.62608 3.65119 4.19219 3.83092 3.87227 4.15084C3.55236 4.47075 3.37263 4.90465 3.37263 5.35708C3.37263 5.80951 3.55236 6.2434 3.87227 6.56332C4.19219 6.88323 4.62608 7.06296 5.07851 7.06296C5.301 7.06843 5.52239 7.03001 5.73003 6.9499C5.93767 6.86978 6.12749 6.74953 6.28864 6.59603C6.44979 6.44253 6.57911 6.25878 6.66922 6.05528C6.75934 5.85178 6.80847 5.63251 6.81381 5.41002V5.35708ZM17.7256 12.2865C17.7256 9.45708 15.9256 8.35708 14.1373 8.35708C13.5518 8.32776 12.9689 8.45247 12.4466 8.71876C11.9243 8.98505 11.481 9.38363 11.1609 9.87472H11.0785V8.59237H8.31381V18.0041H11.255V12.9983C11.2125 12.4856 11.374 11.9768 11.7044 11.5825C12.0348 11.1882 12.5075 10.9402 13.0197 10.8924H13.1315C14.0667 10.8924 14.7609 11.4806 14.7609 12.963V18.0041H17.702L17.7256 12.2865Z" fill="#A7A7A7"/>
</g>
<defs>
<clipPath id="clip0_6127_4592">
<rect width="20" height="20" fill="white" transform="translate(0.666748 0.945312)"/>
</clipPath>
</defs>
</svg>
