<svg width="22" height="22" viewBox="0 0 22 22" fill="none" xmlns="http://www.w3.org/2000/svg">
<path d="M16.5 9.85384C16.1242 9.85384 15.8125 9.54218 15.8125 9.16634V7.33301C15.8125 4.44551 14.9967 2.52051 11 2.52051C7.00333 2.52051 6.1875 4.44551 6.1875 7.33301V9.16634C6.1875 9.54218 5.87583 9.85384 5.5 9.85384C5.12417 9.85384 4.8125 9.54218 4.8125 9.16634V7.33301C4.8125 4.67467 5.45417 1.14551 11 1.14551C16.5458 1.14551 17.1875 4.67467 17.1875 7.33301V9.16634C17.1875 9.54218 16.8758 9.85384 16.5 9.85384Z" fill="#20419C"/>
<path d="M11 17.6458C9.35918 17.6458 8.02084 16.3075 8.02084 14.6667C8.02084 13.0258 9.35918 11.6875 11 11.6875C12.6408 11.6875 13.9792 13.0258 13.9792 14.6667C13.9792 16.3075 12.6408 17.6458 11 17.6458ZM11 13.0625C10.12 13.0625 9.39584 13.7867 9.39584 14.6667C9.39584 15.5467 10.12 16.2708 11 16.2708C11.88 16.2708 12.6042 15.5467 12.6042 14.6667C12.6042 13.7867 11.88 13.0625 11 13.0625Z" fill="#20419C"/>
<path d="M15.5833 20.8545H6.41668C2.37418 20.8545 1.14584 19.6262 1.14584 15.5837V13.7503C1.14584 9.70783 2.37418 8.47949 6.41668 8.47949H15.5833C19.6258 8.47949 20.8542 9.70783 20.8542 13.7503V15.5837C20.8542 19.6262 19.6258 20.8545 15.5833 20.8545ZM6.41668 9.85449C3.13501 9.85449 2.52084 10.4778 2.52084 13.7503V15.5837C2.52084 18.8562 3.13501 19.4795 6.41668 19.4795H15.5833C18.865 19.4795 19.4792 18.8562 19.4792 15.5837V13.7503C19.4792 10.4778 18.865 9.85449 15.5833 9.85449H6.41668Z" fill="#292D32"/>
</svg>
