<svg width="20" height="20" viewBox="0 0 20 20" fill="none" xmlns="http://www.w3.org/2000/svg">
<path d="M13.0417 17.8416C12.6833 17.8416 12.325 17.7666 12.0333 17.6249L7.65833 15.4332C7.40833 15.3082 6.91666 15.3166 6.67499 15.4582L4.70833 16.5832C3.85833 17.0666 2.98333 17.1332 2.32499 16.7416C1.65833 16.3582 1.28333 15.5749 1.28333 14.5916V6.49155C1.28333 5.73322 1.78333 4.87489 2.44166 4.49989L6.04999 2.43322C6.65833 2.08322 7.58333 2.05822 8.20833 2.37489L12.5833 4.56655C12.8333 4.69155 13.3167 4.67489 13.5667 4.54155L15.525 3.42489C16.375 2.94155 17.25 2.87489 17.9083 3.26655C18.575 3.64989 18.95 4.43322 18.95 5.41655V13.5249C18.95 14.2832 18.45 15.1416 17.7917 15.5166L14.1833 17.5832C13.8667 17.7499 13.45 17.8416 13.0417 17.8416ZM7.19999 14.0999C7.55833 14.0999 7.91666 14.1749 8.20833 14.3166L12.5833 16.5082C12.8333 16.6332 13.3167 16.6166 13.5667 16.4832L17.175 14.4166C17.4417 14.2666 17.7 13.8166 17.7 13.5166V5.40822C17.7 4.88322 17.55 4.49155 17.275 4.34155C17.0083 4.19155 16.5917 4.24989 16.1417 4.50822L14.1833 5.62489C13.575 5.97489 12.65 5.99989 12.025 5.68322L7.64999 3.49155C7.39999 3.36655 6.91666 3.38322 6.66666 3.51655L3.05833 5.58322C2.79166 5.73322 2.53333 6.18322 2.53333 6.49155V14.5999C2.53333 15.1249 2.68333 15.5166 2.94999 15.6666C3.21666 15.8249 3.63333 15.7582 4.09166 15.4999L6.04999 14.3832C6.37499 14.1916 6.79166 14.0999 7.19999 14.0999Z" fill="#20419C"/>
<path d="M7.13336 14.7916C6.7917 14.7916 6.50836 14.5083 6.50836 14.1666V3.33325C6.50836 2.99159 6.7917 2.70825 7.13336 2.70825C7.47503 2.70825 7.75836 2.99159 7.75836 3.33325V14.1666C7.75836 14.5083 7.47503 14.7916 7.13336 14.7916Z" fill="#20419C"/>
<path d="M13.1083 17.2916C12.7667 17.2916 12.4833 17.0083 12.4833 16.6666V5.5166C12.4833 5.17493 12.7667 4.8916 13.1083 4.8916C13.45 4.8916 13.7333 5.17493 13.7333 5.5166V16.6666C13.7333 17.0083 13.45 17.2916 13.1083 17.2916Z" fill="#20419C"/>
</svg>
