<svg width="16" height="16" viewBox="0 0 16 16" fill="none" xmlns="http://www.w3.org/2000/svg">
<path d="M10.92 15.1667H2.16003C1.5267 15.1667 0.940036 14.8734 0.560036 14.36C0.173369 13.84 0.0600416 13.1867 0.253375 12.5667L3.06004 3.54663C3.31337 2.70663 4.08671 2.1333 4.96671 2.1333H13.1667C13.9734 2.1333 14.7 2.61336 15.0067 3.36003C15.1734 3.74669 15.2067 4.1867 15.1067 4.62004L12.86 13.64C12.6467 14.54 11.8467 15.1667 10.92 15.1667ZM4.97337 3.13997C4.54003 3.13997 4.1467 3.42668 4.02004 3.84668L1.21338 12.8667C1.12004 13.18 1.17337 13.5067 1.37337 13.7734C1.56004 14.0267 1.85337 14.1733 2.1667 14.1733H10.9267C11.3867 14.1733 11.7867 13.86 11.8934 13.4133L14.14 4.38664C14.1934 4.16664 14.18 3.94667 14.0934 3.75334C13.9334 3.37334 13.58 3.1333 13.1734 3.1333H4.97337V3.13997Z" fill="#20419C"/>
<path d="M13.8534 15.1668H10.6667C10.3934 15.1668 10.1667 14.9401 10.1667 14.6668C10.1667 14.3935 10.3934 14.1668 10.6667 14.1668H13.8534C14.1267 14.1668 14.3801 14.0535 14.5668 13.8535C14.7534 13.6535 14.8467 13.3868 14.8267 13.1135L14.1667 4.03351C14.1467 3.76017 14.3534 3.52014 14.6267 3.50014C14.9001 3.48681 15.1401 3.68677 15.1601 3.9601L15.8201 13.0402C15.8601 13.5868 15.6667 14.1335 15.2934 14.5335C14.9267 14.9402 14.4001 15.1668 13.8534 15.1668Z" fill="#20419C"/>
<path d="M6.45326 4.75347C6.41326 4.75347 6.37326 4.74679 6.33326 4.74012C6.0666 4.67345 5.89994 4.40677 5.96661 4.13343L6.65992 1.25347C6.72659 0.986801 6.99326 0.820102 7.26659 0.886769C7.53326 0.953435 7.69994 1.22012 7.63327 1.49346L6.93993 4.3735C6.8866 4.60017 6.67993 4.75347 6.45326 4.75347Z" fill="#292D32"/>
<path d="M10.92 4.75983C10.8866 4.75983 10.8466 4.75982 10.8133 4.74648C10.5466 4.68648 10.3733 4.41981 10.4266 4.15314L11.0533 1.25983C11.1133 0.986495 11.38 0.819858 11.6466 0.873191C11.9133 0.926525 12.0866 1.19979 12.0333 1.46645L11.4066 4.35984C11.3599 4.59984 11.1533 4.75983 10.92 4.75983Z" fill="#292D32"/>
<path d="M10.4669 8.5H5.13354C4.86021 8.5 4.63354 8.27333 4.63354 8C4.63354 7.72667 4.86021 7.5 5.13354 7.5H10.4669C10.7402 7.5 10.9669 7.72667 10.9669 8C10.9669 8.27333 10.7402 8.5 10.4669 8.5Z" fill="#292D32"/>
<path d="M9.80013 11.1665H4.4668C4.19346 11.1665 3.9668 10.9398 3.9668 10.6665C3.9668 10.3932 4.19346 10.1665 4.4668 10.1665H9.80013C10.0735 10.1665 10.3001 10.3932 10.3001 10.6665C10.3001 10.9398 10.0735 11.1665 9.80013 11.1665Z" fill="#292D32"/>
</svg>
