<svg width="41" height="41" viewBox="0 0 41 41" fill="none" xmlns="http://www.w3.org/2000/svg">
<path d="M20.4998 26.0522C17.4419 26.0522 14.9478 23.558 14.9478 20.5001C14.9478 17.4422 17.4419 14.948 20.4998 14.948C23.5578 14.948 26.0519 17.4422 26.0519 20.5001C26.0519 23.558 23.5578 26.0522 20.4998 26.0522ZM20.4998 17.5105C18.8598 17.5105 17.5103 18.8601 17.5103 20.5001C17.5103 22.1401 18.8598 23.4897 20.4998 23.4897C22.1398 23.4897 23.4894 22.1401 23.4894 20.5001C23.4894 18.8601 22.1398 17.5105 20.4998 17.5105Z" fill="#20419C"/>
<path d="M31.604 26.0522C30.9036 26.0522 30.3228 25.4713 30.3228 24.7709V16.2292C30.3228 15.5288 30.9036 14.948 31.604 14.948C32.3044 14.948 32.8853 15.5288 32.8853 16.2292V24.7709C32.8853 25.4713 32.3044 26.0522 31.604 26.0522Z" fill="#20419C"/>
<path d="M7.56782 33.7225C7.24324 33.7225 6.91866 33.603 6.66241 33.3467L4.97117 31.6555C4.47576 31.1601 4.47576 30.34 4.97117 29.8445C5.46659 29.3491 6.28658 29.3491 6.782 29.8445L7.60202 30.6646L10.3353 28.1362C10.8478 27.6579 11.6678 27.6921 12.1461 28.2046C12.6245 28.7171 12.5903 29.5371 12.0778 30.0154L8.43909 33.3808C8.18284 33.6029 7.87532 33.7225 7.56782 33.7225Z" fill="#FFCA29"/>
<path d="M29.0415 35.4478H14.5207C13.8203 35.4478 13.2394 34.867 13.2394 34.1666C13.2394 33.4662 13.8203 32.8853 14.5207 32.8853H29.0415C33.9273 32.8853 36.3019 30.5108 36.3019 25.6249V15.3749C36.3019 10.4891 33.9273 8.1145 29.0415 8.1145L11.9582 8.1145C7.07234 8.1145 4.69775 10.4891 4.69775 15.3749L4.69775 26.1374C4.69775 26.8378 4.11692 27.4186 3.4165 27.4186C2.71609 27.4186 2.13525 26.8378 2.13525 26.1374L2.13525 15.3749C2.13525 9.1395 5.72275 5.552 11.9582 5.552L29.0415 5.552C35.2769 5.552 38.8644 9.1395 38.8644 15.3749V25.6249C38.8644 31.8603 35.2769 35.4478 29.0415 35.4478Z" fill="#20419C"/>
<path d="M8.54183 38.8647C5.706 38.8647 3.041 37.3613 1.606 34.9184C0.83725 33.6884 0.427246 32.2363 0.427246 30.7501C0.427246 26.2742 4.066 22.6355 8.54183 22.6355C13.0177 22.6355 16.6564 26.2742 16.6564 30.7501C16.6564 32.2363 16.2464 33.6884 15.4777 34.9355C14.0427 37.3614 11.3777 38.8647 8.54183 38.8647ZM8.54183 25.198C5.48391 25.198 2.98975 27.6922 2.98975 30.7501C2.98975 31.758 3.26308 32.7488 3.79266 33.603C4.7835 35.2771 6.61141 36.3022 8.54183 36.3022C10.4722 36.3022 12.3002 35.2772 13.291 33.6201C13.8206 32.7488 14.0939 31.7751 14.0939 30.7501C14.0939 27.6922 11.5997 25.198 8.54183 25.198Z" fill="#FFCA29"/>
</svg>
