<svg width="20" height="20" viewBox="0 0 20 20" fill="none" xmlns="http://www.w3.org/2000/svg">
<path d="M10.1329 9.68366C10.1079 9.68366 10.0912 9.68366 10.0662 9.68366C10.0246 9.67533 9.96623 9.67533 9.91623 9.68366C7.49956 9.60866 5.67456 7.70866 5.67456 5.36699C5.67456 2.98366 7.61623 1.04199 9.99956 1.04199C12.3829 1.04199 14.3246 2.98366 14.3246 5.36699C14.3162 7.70866 12.4829 9.60866 10.1579 9.68366C10.1496 9.68366 10.1412 9.68366 10.1329 9.68366ZM9.99956 2.29199C8.30789 2.29199 6.92456 3.67533 6.92456 5.36699C6.92456 7.03366 8.22456 8.37533 9.88289 8.43366C9.92456 8.42533 10.0412 8.42533 10.1496 8.43366C11.7829 8.35866 13.0662 7.01699 13.0746 5.36699C13.0746 3.67533 11.6912 2.29199 9.99956 2.29199Z" fill="#20419C"/>
<path d="M10.1413 18.7913C8.50801 18.7913 6.86634 18.3747 5.62467 17.5413C4.46634 16.7747 3.83301 15.7247 3.83301 14.583C3.83301 13.4413 4.46634 12.383 5.62467 11.608C8.12467 9.94967 12.1747 9.94967 14.658 11.608C15.808 12.3747 16.4497 13.4247 16.4497 14.5663C16.4497 15.708 15.8163 16.7663 14.658 17.5413C13.408 18.3747 11.7747 18.7913 10.1413 18.7913ZM6.31634 12.658C5.51634 13.1913 5.08301 13.8747 5.08301 14.5913C5.08301 15.2997 5.52467 15.983 6.31634 16.508C8.39134 17.8997 11.8913 17.8997 13.9663 16.508C14.7663 15.9747 15.1997 15.2913 15.1997 14.5747C15.1997 13.8663 14.758 13.183 13.9663 12.658C11.8913 11.2747 8.39134 11.2747 6.31634 12.658Z" fill="#20419C"/>
</svg>
