<svg width="121" height="120" viewBox="0 0 121 120" fill="none" xmlns="http://www.w3.org/2000/svg">
<path d="M120.5 60C120.5 93.1376 93.6376 120 60.5 120C27.3624 120 0.5 93.1376 0.5 60C0.5 26.8624 27.3624 0 60.5 0C93.6376 0 120.5 26.8624 120.5 60Z" fill="#08C230"/>
<path d="M56.1734 100.545C61.1244 95.8527 63.3198 89.3709 63.3198 89.3709L55.34 82.596C55.34 82.596 45.5347 63.7593 45.5952 63.8066C23.7031 38.3488 40.2303 3.83242 40.4169 3.44336C17.1591 11.7048 0.5 33.9081 0.5 59.9999C0.5 90.8816 23.8358 116.315 53.8332 119.634C49.9248 113.714 50.8159 105.623 56.1734 100.545Z" fill="#05AF60"/>
<path d="M56.8317 92.2513C54.9015 92.2526 53.0255 91.6124 51.4988 90.4313L23.2144 68.6134C19.3929 65.6663 18.6844 60.1787 21.6324 56.3572C24.5794 52.5369 30.0671 51.8281 33.8885 54.7752L55.7714 71.6565L85.9636 38.2416C89.1992 34.6611 94.7245 34.3808 98.3058 37.6173C101.887 40.8516 102.167 46.378 98.9304 49.9585L63.3188 89.371C61.6013 91.2718 59.2245 92.2515 56.8313 92.2515L56.8317 92.2513Z" fill="white"/>
</svg>
