<svg width="93" height="39" viewBox="0 0 93 39" fill="none" xmlns="http://www.w3.org/2000/svg">
<g clip-path="url(#clip0_6127_9086)">
<path d="M14.4054 37.8787C14.4054 38.3477 14.0232 38.7296 13.554 38.7296C13.0849 38.7296 12.7027 38.3477 12.7027 37.8787C12.7027 37.4097 13.0839 37.0269 13.554 37.0269C14.0242 37.0269 14.4054 37.4078 14.4054 37.8787Z" fill="#223F99"/>
<path d="M16.6757 37.8787C16.6757 38.3477 16.2942 38.7296 15.8238 38.7296C15.3535 38.7296 14.973 38.3477 14.973 37.8787C14.973 37.4097 15.3535 37.0269 15.8238 37.0269C16.2942 37.0269 16.6757 37.4078 16.6757 37.8787Z" fill="#223F99"/>
<path d="M49.3113 35.8908C52.8971 35.8908 53 32.5975 53 32.5975V26.2432H50.9276V32.5975C50.9276 32.5975 50.7973 33.982 49.3113 33.982C47.8254 33.982 47.7054 32.5975 47.7054 32.5975V29.1572H45.6216V32.6007C45.6216 32.6007 45.6216 35.8918 49.3102 35.8918" fill="#223F99"/>
<path d="M40.5135 26.2432H38.8108V35.8918H40.5135V26.2432Z" fill="#223F99"/>
<path d="M55.8852 33.5227C54.7541 32.8955 54.3756 31.521 55.0419 30.4532C55.7072 29.3853 57.1635 29.0313 58.2958 29.6586C59.4269 30.2858 59.8044 31.6602 59.138 32.7281C58.4728 33.7939 57.0164 34.1499 55.8852 33.5227ZM90.7947 26.2432V32.3439C90.7947 32.3439 90.6742 33.6709 89.2872 33.6709C87.9001 33.6709 85.2935 33.6729 83.7678 33.6729C84.1826 33.0699 84.4246 32.3519 84.4246 31.5805C84.4246 29.4559 82.5993 27.7315 80.3455 27.7315C78.0917 27.7315 76.2665 29.4549 76.2665 31.5805H78.0843C78.0843 30.4027 79.096 29.4468 80.3466 29.4468C81.5972 29.4468 82.6079 30.4027 82.6079 31.5805C82.6079 32.6161 81.8253 33.4783 80.7901 33.6729C80.5737 33.6729 75.6023 33.6729 72.2717 33.6709C72.5905 32.9741 72.6107 32.3439 72.6107 32.3439V26.2432H70.6778V32.3439C70.6778 32.3439 70.5563 33.6709 69.1693 33.6709C68.8921 33.6709 62.7607 33.6618 60.5432 33.6588L60.6135 33.5469C61.7586 31.7096 61.1104 29.345 59.1636 28.265C57.2168 27.185 54.7104 27.7971 53.5653 29.6333C52.4203 31.4696 53.0696 33.8333 55.0163 34.9152C55.7807 35.3388 56.6305 35.5011 57.4525 35.4326L56.6134 36.7767L58.09 37.5945L59.3885 35.5132C61.8481 35.5112 68.8899 35.5052 69.1703 35.5052C69.2673 35.5052 69.3612 35.5021 69.4529 35.4971V35.5052H89.2882C92.6327 35.5052 92.7297 32.3449 92.7297 32.3449V26.2442H90.7958L90.7947 26.2432Z" fill="#223F99"/>
<path d="M5.03403 29.7347C3.77557 29.7347 2.7211 30.8368 2.7211 32.1718C2.7211 33.5068 3.74751 34.6672 5.04807 34.6672C6.34862 34.6672 7.36101 33.5651 7.36101 32.2015C7.36101 30.8379 6.32056 29.7336 5.03511 29.7336M5.03403 36.4593C2.69087 36.4593 0.783752 34.5507 0.783752 32.2037C0.783752 29.8566 2.69195 27.9458 5.01892 27.9458C7.34589 27.9458 9.29727 29.839 9.29727 32.2619C9.29727 34.5507 7.35992 36.4593 5.03403 36.4593Z" fill="#223F99"/>
<path d="M21.7838 4.39118C21.7838 5.48914 22.6728 6.37825 23.7702 6.37825C24.8676 6.37825 25.7567 5.48914 25.7567 4.39118C25.7567 3.29321 24.8688 2.40527 23.7702 2.40527C22.6717 2.40527 21.7838 3.29438 21.7838 4.39118Z" fill="#223F99"/>
<path d="M7.31077 6.37825C8.40817 6.37825 9.29725 5.48914 9.29725 4.39118C9.29725 3.29321 8.40817 2.40527 7.31077 2.40527C6.21337 2.40527 5.32428 3.29438 5.32428 4.39118C5.32428 5.48797 6.21337 6.37825 7.31077 6.37825Z" fill="#223F99"/>
<path d="M10.1514 12.1879C10.1514 12.1879 9.8875 14.7545 7.31025 14.7545C4.733 14.7545 4.45016 12.1879 4.45016 12.1879V7.51343H0.783752V12.1879C0.783752 12.1879 0.965276 18.2972 7.31131 18.2972C13.6573 18.2972 13.8378 12.1879 13.8378 12.1879V7.51343H10.1514V12.1879Z" fill="#223F99"/>
<path d="M89.0376 7.94544V12.7775C89.0376 12.7775 88.7736 15.43 86.1967 15.43C83.8374 15.43 83.4086 13.2998 83.3431 12.8584C83.3474 12.8069 83.3516 12.7785 83.3516 12.7785V7.94649H79.6627V12.7785C79.6627 12.7785 79.3965 15.431 76.8197 15.431C74.2428 15.431 73.9577 12.7785 73.9577 12.7785L73.9556 7.94649H70.1969V12.7785C70.1969 12.7785 69.9329 15.431 67.356 15.431H57.9716H57.0612C56.5015 12.4727 53.9458 10.3037 50.7458 10.3037C47.5459 10.3037 45.0556 12.519 44.4969 15.411H33.8156V15.4321H32.0329V15.43C29.4729 15.43 29.1846 12.9225 29.1709 12.7848C29.1709 12.7827 29.172 12.7785 29.172 12.7785V7.94649H25.4799V12.7785C25.4799 12.7785 25.2169 15.431 22.639 15.431C20.061 15.431 19.777 12.7785 19.777 12.7785V0.702637H16.1081V12.7785C16.1081 12.7785 16.2897 19.0924 22.64 19.0924C24.8346 19.0924 26.2941 18.2548 27.2668 17.1902C28.1898 18.2075 29.5965 19.0135 31.7393 19.0818V19.106H44.1389L44.121 19.086H44.8137V18.8139C45.7368 21.1647 48.0559 22.8378 50.7701 22.8378C53.4843 22.8378 55.6408 21.2856 56.6388 19.106H61.6447V19.0903H67.3571C69.5759 19.0903 71.045 18.2327 72.0166 17.1503C72.9808 18.2327 74.4815 19.0903 76.8218 19.0903C79.0079 19.0903 80.4653 18.2569 81.438 17.1976C82.4043 18.2558 83.8923 19.0903 86.1978 19.0903C92.2249 19.0903 92.7297 12.7764 92.7297 12.7764V7.94439H89.0387L89.0376 7.94544ZM50.7881 19.5211C49.1986 19.5211 47.9451 18.2033 47.9451 16.5355C47.9451 14.8677 49.2335 13.6193 50.769 13.6193C52.3046 13.6193 53.612 14.9539 53.612 16.5702C53.612 18.1865 52.3405 19.5211 50.7881 19.5211Z" fill="#223F99"/>
<path d="M37.6757 32.5136V26.2432H35.6848V32.5136C35.6848 32.5136 35.5455 33.8696 34.1793 33.8696H29.6242C29.3306 32.382 27.9869 31.2914 26.3057 31.2914C24.6245 31.2914 23.3161 32.4055 23.0225 33.8594H21.8642H19.4329C18.0774 33.8594 17.9253 32.5881 17.9167 32.5177C17.9189 32.5177 17.9188 32.5147 17.9188 32.5147V29.1733H15.9644V32.5147C15.9644 32.5147 15.8251 33.8594 14.4589 33.8594C13.0927 33.8594 12.9438 32.5147 12.9438 32.5147V26.3421H11V32.5147C11 32.5147 11.0975 35.7142 14.4578 35.7142C15.6204 35.7142 16.393 35.2887 16.9084 34.75C17.8406 35.8244 19.2765 35.7081 19.2765 35.7081H23.2476C23.2476 35.7081 23.9741 37.5945 26.3164 37.5945C27.6815 37.5945 28.8763 36.814 29.4003 35.7183H34.1782C37.7646 35.7183 37.6746 32.5147 37.6746 32.5147M26.3293 35.9264C25.4946 35.9264 24.8356 35.2642 24.8356 34.4256C24.8356 33.587 25.5128 32.9595 26.3196 32.9595C27.1265 32.9595 27.8133 33.6308 27.8133 34.4429C27.8133 35.2551 27.1447 35.9264 26.3293 35.9264Z" fill="#223F99"/>
</g>
<defs>
<clipPath id="clip0_6127_9086">
<rect width="91.9459" height="38.027" fill="white" transform="translate(0.783752 0.702637)"/>
</clipPath>
</defs>
</svg>
