<svg width="41" height="41" viewBox="0 0 41 41" fill="none" xmlns="http://www.w3.org/2000/svg">
<path d="M35.875 11.498C35.8408 11.498 35.7896 11.498 35.7383 11.498C26.7013 10.5926 17.6813 10.251 8.74667 11.1564L5.26167 11.498C4.54417 11.5664 3.91209 11.0539 3.84376 10.3364C3.77543 9.61887 4.28793 9.00387 4.98834 8.93554L8.47334 8.59387C17.5617 7.67137 26.7696 8.03012 35.9946 8.93554C36.695 9.00387 37.2075 9.63596 37.1392 10.3364C37.0879 11.0026 36.5242 11.498 35.875 11.498Z" fill="#20419C"/>
<path d="M14.5208 9.77102C14.4525 9.77102 14.3841 9.77102 14.2987 9.75393C13.6154 9.63435 13.137 8.9681 13.2566 8.28477L13.6325 6.04685C13.9058 4.40685 14.2816 2.13477 18.262 2.13477H22.7379C26.7354 2.13477 27.1112 4.49227 27.3675 6.06393L27.7433 8.28477C27.8629 8.98518 27.3845 9.65143 26.7012 9.75393C26.0008 9.87352 25.3345 9.39518 25.232 8.71185L24.8562 6.49102C24.617 5.00477 24.5658 4.71435 22.755 4.71435H18.2791C16.4683 4.71435 16.4341 4.95352 16.1779 6.47393L15.785 8.69477C15.6825 9.32685 15.1358 9.77102 14.5208 9.77102Z" fill="#20419C"/>
<path d="M25.9837 38.8653H15.0162C9.05414 38.8653 8.81497 35.5682 8.62705 32.9032L7.51664 15.7003C7.46539 14.9998 8.01205 14.3848 8.71247 14.3336C9.42997 14.2994 10.0279 14.829 10.0791 15.5294L11.1896 32.7323C11.3775 35.329 11.4458 36.3028 15.0162 36.3028H25.9837C29.5712 36.3028 29.6396 35.329 29.8104 32.7323L30.9208 15.5294C30.9721 14.829 31.5871 14.2994 32.2875 14.3336C32.9879 14.3848 33.5346 14.9828 33.4833 15.7003L32.3729 32.9032C32.185 35.5682 31.9458 38.8653 25.9837 38.8653Z" fill="#EF233C"/>
<path d="M23.3358 29.4688H17.6471C16.9467 29.4688 16.3658 28.8879 16.3658 28.1875C16.3658 27.4871 16.9467 26.9062 17.6471 26.9062H23.3358C24.0363 26.9062 24.6171 27.4871 24.6171 28.1875C24.6171 28.8879 24.0363 29.4688 23.3358 29.4688Z" fill="#EF233C"/>
<path d="M24.7708 22.6348H16.2291C15.5287 22.6348 14.9479 22.0539 14.9479 21.3535C14.9479 20.6531 15.5287 20.0723 16.2291 20.0723H24.7708C25.4712 20.0723 26.052 20.6531 26.052 21.3535C26.052 22.0539 25.4712 22.6348 24.7708 22.6348Z" fill="#EF233C"/>
</svg>
