<svg width="21" height="21" viewBox="0 0 21 21" fill="none" xmlns="http://www.w3.org/2000/svg">
<g clip-path="url(#clip0_6127_4593)">
<path d="M18.2858 6.76118C18.298 6.94201 18.298 7.12283 18.298 7.30532C18.298 12.8658 14.1705 19.2787 6.62304 19.2787V19.2754C4.3935 19.2787 2.21028 18.6238 0.333374 17.3888C0.657567 17.4288 0.983384 17.4488 1.31001 17.4497C3.15767 17.4513 4.95251 16.8155 6.40609 15.6448C4.65025 15.6106 3.11054 14.4365 2.57266 12.7225C3.18773 12.8441 3.82149 12.8191 4.42519 12.65C2.51091 12.2533 1.1337 10.5284 1.1337 8.52524C1.1337 8.50691 1.1337 8.48941 1.1337 8.47191C1.70408 8.79772 2.34272 8.97854 2.99598 8.99854C1.19301 7.76279 0.637254 5.30294 1.72602 3.37973C3.8093 6.00873 6.88304 7.60696 10.1827 7.77612C9.85196 6.31455 10.3037 4.78298 11.3697 3.75554C13.0224 2.16231 15.6216 2.24397 17.1751 3.93803C18.0941 3.75221 18.9749 3.4064 19.7809 2.91643C19.4745 3.89053 18.8335 4.71798 17.9771 5.24378C18.7904 5.14545 19.5851 4.92213 20.3334 4.58132C19.7825 5.42793 19.0886 6.16539 18.2858 6.76118Z" fill="#A7A7A7"/>
</g>
<defs>
<clipPath id="clip0_6127_4593">
<rect width="20" height="20" fill="white" transform="translate(0.333374 0.945312)"/>
</clipPath>
</defs>
</svg>
