<svg width="33" height="32" viewBox="0 0 33 32" fill="none" xmlns="http://www.w3.org/2000/svg">
<path d="M12.25 14.3333C10.2233 14.3333 8.58331 12.6933 8.58331 10.6667C8.58331 8.64 10.2233 7 12.25 7C14.2766 7 15.9166 8.64 15.9166 10.6667C15.9166 12.6933 14.2766 14.3333 12.25 14.3333ZM12.25 9C11.33 9 10.5833 9.74667 10.5833 10.6667C10.5833 11.5867 11.33 12.3333 12.25 12.3333C13.17 12.3333 13.9166 11.5867 13.9166 10.6667C13.9166 9.74667 13.17 9 12.25 9Z" fill="#20419C"/>
<path d="M20.25 30.3337H12.25C5.01002 30.3337 1.91669 27.2403 1.91669 20.0003V12.0003C1.91669 4.76033 5.01002 1.66699 12.25 1.66699H17.5834C18.13 1.66699 18.5834 2.12033 18.5834 2.66699C18.5834 3.21366 18.13 3.66699 17.5834 3.66699H12.25C6.10335 3.66699 3.91669 5.85366 3.91669 12.0003V20.0003C3.91669 26.147 6.10335 28.3337 12.25 28.3337H20.25C26.3967 28.3337 28.5834 26.147 28.5834 20.0003V13.3337C28.5834 12.787 29.0367 12.3337 29.5834 12.3337C30.13 12.3337 30.5834 12.787 30.5834 13.3337V20.0003C30.5834 27.2403 27.49 30.3337 20.25 30.3337Z" fill="#818181"/>
<path d="M24.25 11.6669C23.7033 11.6669 23.25 11.2136 23.25 10.6669V2.66691C23.25 2.26691 23.49 1.89358 23.8633 1.74691C24.2367 1.60024 24.6633 1.68024 24.9567 1.96024L27.6233 4.62691C28.01 5.01358 28.01 5.65358 27.6233 6.04024C27.2367 6.42691 26.5967 6.42691 26.21 6.04024L25.25 5.08024V10.6669C25.25 11.2136 24.7967 11.6669 24.25 11.6669Z" fill="#FFCA29"/>
<path d="M21.5833 6.33326C21.33 6.33326 21.0767 6.23992 20.8767 6.03992C20.49 5.65326 20.49 5.01326 20.8767 4.62659L23.5433 1.95992C23.93 1.57326 24.57 1.57326 24.9567 1.95992C25.3433 2.34659 25.3433 2.98659 24.9567 3.37326L22.29 6.03992C22.09 6.23992 21.8367 6.33326 21.5833 6.33326Z" fill="#FFCA29"/>
<path d="M3.81 26.2671C3.49 26.2671 3.17 26.1071 2.98334 25.8271C2.67667 25.3737 2.79667 24.7471 3.25 24.4404L9.82334 20.0271C11.2633 19.0671 13.25 19.1737 14.5567 20.2804L14.9967 20.6671C15.6633 21.2404 16.7967 21.2404 17.45 20.6671L22.9967 15.9071C24.41 14.6937 26.6367 14.6937 28.0633 15.9071L30.2367 17.7737C30.65 18.1337 30.7033 18.7604 30.3433 19.1871C29.9833 19.6004 29.3433 19.6537 28.93 19.2937L26.7567 17.4271C26.09 16.8537 24.97 16.8537 24.3033 17.4271L18.7567 22.1871C17.3433 23.4004 15.1167 23.4004 13.69 22.1871L13.25 21.8004C12.6367 21.2804 11.6233 21.2271 10.9433 21.6937L4.38334 26.1071C4.19667 26.2137 3.99667 26.2671 3.81 26.2671Z" fill="#818181"/>
</svg>
