<svg width="23" height="22" viewBox="0 0 23 22" fill="none" xmlns="http://www.w3.org/2000/svg">
<path d="M15.8334 20.854H6.66671C3.51337 20.854 1.39587 18.7365 1.39587 15.5832V10.9998C1.39587 8.1765 3.13754 6.13234 5.84171 5.79318C6.09837 5.75651 6.38254 5.729 6.66671 5.729H15.8334C16.0534 5.729 16.3375 5.73817 16.6309 5.784C19.335 6.09567 21.1042 8.149 21.1042 10.9998V15.5832C21.1042 18.7365 18.9867 20.854 15.8334 20.854ZM6.66671 7.104C6.44671 7.104 6.23587 7.12233 6.02504 7.14983C4.00837 7.40649 2.77087 8.87317 2.77087 10.9998V15.5832C2.77087 17.9482 4.30171 19.479 6.66671 19.479H15.8334C18.1984 19.479 19.7292 17.9482 19.7292 15.5832V10.9998C19.7292 8.85484 18.4734 7.37901 16.4384 7.14068C16.2184 7.10401 16.0259 7.104 15.8334 7.104H6.66671Z" fill="white"/>
<path d="M5.92417 7.159C5.70417 7.159 5.5025 7.05817 5.365 6.87483C5.20917 6.664 5.19084 6.389 5.31 6.15983C5.46584 5.84817 5.68584 5.54567 5.97 5.27067L8.94917 2.28232C10.4708 0.769824 12.9458 0.769824 14.4675 2.28232L16.0717 3.90484C16.75 4.57401 17.1625 5.47234 17.2083 6.42568C17.2175 6.63651 17.135 6.83815 16.9792 6.97565C16.8233 7.11315 16.6125 7.17734 16.4108 7.14067C16.2275 7.11317 16.035 7.104 15.8333 7.104H6.66667C6.44667 7.104 6.23584 7.12232 6.025 7.14982C5.9975 7.15899 5.96084 7.159 5.92417 7.159ZM7.455 5.729H15.6683C15.5492 5.41733 15.3567 5.13317 15.1 4.87651L13.4867 3.24484C12.5058 2.27317 10.9017 2.27317 9.91167 3.24484L7.455 5.729Z" fill="white"/>
<path d="M20.4167 15.8127H17.6667C16.2734 15.8127 15.1459 14.6852 15.1459 13.2918C15.1459 11.8985 16.2734 10.771 17.6667 10.771H20.4167C20.7925 10.771 21.1042 11.0827 21.1042 11.4585C21.1042 11.8343 20.7925 12.146 20.4167 12.146H17.6667C17.0342 12.146 16.5209 12.6593 16.5209 13.2918C16.5209 13.9243 17.0342 14.4377 17.6667 14.4377H20.4167C20.7925 14.4377 21.1042 14.7493 21.1042 15.1252C21.1042 15.501 20.7925 15.8127 20.4167 15.8127Z" fill="white"/>
</svg>
