<svg xmlns="http://www.w3.org/2000/svg" width="90" height="92" viewBox="0 0 90 92" fill="none"><path d="M87.8291 18.4609C88.9504 18.4609 89.8604 19.3709 89.8604 20.4922C89.8604 21.6134 88.9504 22.5234 87.8291 22.5234C86.7079 22.5234 85.7979 21.6134 85.7979 20.4922C85.7979 19.3709 86.7079 18.4609 87.8291 18.4609ZM87.8291 71.2734C88.9504 71.2734 89.8604 72.1834 89.8604 73.3047C89.8604 74.4259 88.9504 75.3359 87.8291 75.3359C86.7079 75.3359 85.7979 74.4259 85.7979 73.3047C85.7979 72.1834 86.7079 71.2734 87.8291 71.2734Z" fill="#94D4FF"/><path d="M77.6729 83.4609C79.9174 83.4609 81.7354 85.2789 81.7354 87.5234C81.7354 89.768 79.9174 91.5859 77.6729 91.5859C75.4283 91.5859 73.6104 89.768 73.6104 87.5234C73.6104 85.2789 75.4283 83.4609 77.6729 83.4609Z" fill="#201AD9"/><path d="M73.6104 0.179688C74.7316 0.179688 75.6416 1.08969 75.6416 2.21094C75.6416 3.33219 74.7316 4.24219 73.6104 4.24219C72.4891 4.24219 71.5791 3.33219 71.5791 2.21094C71.5791 1.08969 72.4891 0.179688 73.6104 0.179688Z" fill="#94D4FF"/><path d="M45.1729 6.27344C22.7357 6.27344 4.54785 24.4613 4.54785 46.8984C4.54785 69.3356 22.7357 87.5234 45.1729 87.5234C67.61 87.5234 85.7979 69.3356 85.7979 46.8984C85.7979 24.4613 67.61 6.27344 45.1729 6.27344Z" fill="#FFDC57"/><path d="M45.1729 77.3672C28.346 77.3672 14.7041 63.7253 14.7041 46.8984C14.7041 30.0716 28.346 16.4297 45.1729 16.4297C61.9997 16.4297 75.6416 30.0716 75.6416 46.8984C75.6416 63.7253 61.9997 77.3672 45.1729 77.3672Z" fill="white"/><path d="M60.275 37.2948C61.8616 38.8812 61.8616 41.4528 60.275 43.0392L45.912 57.4042L40.1676 63.1486L34.4212 57.4042L30.113 53.0939C29.321 52.3017 28.9229 51.2617 28.9229 50.2217C28.9229 49.1817 29.321 48.1417 30.113 47.3493C31.6996 45.7629 34.2711 45.7629 35.8573 47.3493L40.1676 51.6576L54.5308 37.2948C55.325 36.5026 56.363 36.1045 57.403 36.1045C58.443 36.1045 59.481 36.5026 60.275 37.2948Z" fill="#07CC66"/><path d="M14.7041 87.5234C15.8254 87.5234 16.7354 88.4334 16.7354 89.5547C16.7354 90.6759 15.8254 91.5859 14.7041 91.5859C13.5826 91.5859 12.6729 90.6759 12.6729 89.5547C12.6729 88.4334 13.5826 87.5234 14.7041 87.5234Z" fill="#94D4FF"/><path d="M9.62598 4.24219C12.4311 4.24219 14.7041 6.51516 14.7041 9.32031C14.7041 12.1255 12.4311 14.3984 9.62598 14.3984C6.82062 14.3984 4.54785 12.1255 4.54785 9.32031C4.54785 6.51516 6.82062 4.24219 9.62598 4.24219Z" fill="#201AD9"/><path d="M2.5166 20.4922C3.63785 20.4922 4.54785 21.4022 4.54785 22.5234C4.54785 23.6447 3.63785 24.5547 2.5166 24.5547C1.39515 24.5547 0.485352 23.6447 0.485352 22.5234C0.485352 21.4022 1.39515 20.4922 2.5166 20.4922ZM2.5166 71.2734C3.63785 71.2734 4.54785 72.1834 4.54785 73.3047C4.54785 74.4259 3.63785 75.3359 2.5166 75.3359C1.39515 75.3359 0.485352 74.4259 0.485352 73.3047C0.485352 72.1834 1.39515 71.2734 2.5166 71.2734Z" fill="#94D4FF"/><path d="M69.5479 46.8984C69.5479 45.7766 68.6383 44.8672 67.5166 44.8672C66.3949 44.8672 65.4854 45.7766 65.4854 46.8984C65.4854 58.099 56.3734 67.2109 45.1729 67.2109C44.051 67.2109 43.1416 68.1205 43.1416 69.2422V77.2981C43.8131 77.3424 44.4901 77.3672 45.1729 77.3672C45.8556 77.3672 46.5324 77.3424 47.2041 77.2981V71.1895C59.6975 70.1538 69.5479 59.6547 69.5479 46.8984ZM20.7979 46.8984C20.7979 48.0201 21.7072 48.9297 22.8291 48.9297C23.9508 48.9297 24.8604 48.0201 24.8604 46.8984C24.8604 35.6981 33.9723 26.5859 45.1729 26.5859C46.2945 26.5859 47.2041 25.6765 47.2041 24.5547V16.4987C46.5324 16.4545 45.8556 16.4297 45.1729 16.4297C44.4901 16.4297 43.8131 16.4545 43.1416 16.4987V22.6073C30.6482 23.6431 20.7979 34.1422 20.7979 46.8984Z" fill="#D0DCE7"/></svg>