<svg width="112" height="136" viewBox="0 0 112 136" fill="none" xmlns="http://www.w3.org/2000/svg">
<path d="M111.155 28.5493C111.691 28.4154 112.017 27.8725 111.883 27.3366C111.749 26.8008 111.206 26.475 110.67 26.6089L111.155 28.5493ZM4.61801 100.475C4.07084 100.4 3.5665 100.783 3.49153 101.33C3.41656 101.877 3.79935 102.382 4.34653 102.457L4.61801 100.475ZM19.0708 94.9026C19.5741 94.6752 19.7978 94.0829 19.5704 93.5796C19.343 93.0763 18.7506 92.8526 18.2473 93.08L19.0708 94.9026ZM13.8648 114.488C14.3895 114.66 14.9545 114.375 15.1268 113.85C15.299 113.325 15.0132 112.76 14.4885 112.588L13.8648 114.488ZM110.913 27.5791C110.67 26.6089 110.67 26.609 110.669 26.6091C110.669 26.6092 110.669 26.6093 110.668 26.6094C110.667 26.6097 110.666 26.6101 110.664 26.6105C110.66 26.6114 110.655 26.6127 110.649 26.6143C110.636 26.6176 110.617 26.6224 110.592 26.6288C110.543 26.6414 110.472 26.6601 110.379 26.6849C110.192 26.7345 109.921 26.8084 109.574 26.9071C108.882 27.1044 107.888 27.4007 106.68 27.7989C104.265 28.5946 100.981 29.7999 97.5091 31.438C90.6334 34.6821 82.7479 39.7492 79.6976 46.9205L81.5381 47.7033C84.276 41.2662 91.5379 36.4668 98.3625 33.2467C101.741 31.6527 104.945 30.4763 107.306 29.6984C108.485 29.3098 109.452 29.0214 110.122 28.8306C110.457 28.7352 110.718 28.6643 110.893 28.6175C110.981 28.5941 111.048 28.5768 111.092 28.5654C111.114 28.5597 111.13 28.5555 111.141 28.5529C111.146 28.5515 111.15 28.5505 111.152 28.5499C111.154 28.5496 111.154 28.5494 111.155 28.5493C111.155 28.5493 111.155 28.5493 111.155 28.5492C111.155 28.5492 111.155 28.5493 110.913 27.5791ZM79.6976 46.9205C76.6267 54.1403 79.1435 61.1759 81.4925 67.6876C83.8975 74.3546 86.1107 80.4513 83.5358 86.5052L85.3762 87.288C88.3127 80.3842 85.7128 73.4927 83.3738 67.0089C80.9788 60.3697 78.8207 54.0918 81.5381 47.7033L79.6976 46.9205ZM83.5358 86.5052C80.9611 92.5583 74.1146 97.8247 61.342 100.69C48.5867 103.551 30.1036 103.967 4.61801 100.475L4.34653 102.457C29.9506 105.965 48.6986 105.575 61.7798 102.641C74.8438 99.7108 82.4394 94.1927 85.3762 87.288L83.5358 86.5052ZM18.6591 93.9913C18.2473 93.08 18.2473 93.08 18.2472 93.0801C18.247 93.0801 18.2469 93.0802 18.2467 93.0803C18.2462 93.0805 18.2456 93.0808 18.2448 93.0812C18.2431 93.0819 18.2406 93.083 18.2373 93.0845C18.2308 93.0875 18.221 93.0919 18.208 93.0978C18.1822 93.1094 18.1439 93.1268 18.094 93.1494C17.994 93.1946 17.8474 93.261 17.6604 93.3459C17.2864 93.5155 16.7508 93.7588 16.1043 94.0536C14.8114 94.6431 13.0741 95.4388 11.2975 96.263C9.52171 97.0868 7.70275 97.9409 6.24801 98.6468C5.5212 98.9995 4.88004 99.3177 4.37853 99.578C3.90448 99.824 3.48508 100.053 3.25719 100.22L4.43505 101.836C4.51763 101.776 4.79399 101.616 5.29981 101.353C5.77817 101.105 6.40099 100.796 7.1211 100.446C8.56021 99.7479 10.3669 98.8995 12.1391 98.0773C13.9105 97.2555 15.6435 96.4618 16.934 95.8734C17.5792 95.5792 18.1136 95.3364 18.4866 95.1672C18.6731 95.0826 18.8192 95.0164 18.9187 94.9714C18.9684 94.9489 19.0065 94.9317 19.0321 94.9201C19.0449 94.9143 19.0546 94.9099 19.0611 94.907C19.0643 94.9055 19.0668 94.9044 19.0684 94.9037C19.0692 94.9033 19.0698 94.9031 19.0702 94.9029C19.0704 94.9028 19.0705 94.9027 19.0707 94.9027C19.0707 94.9026 19.0708 94.9026 18.6591 93.9913ZM3.25719 100.22C2.7933 100.558 2.72791 101.064 2.7445 101.367C2.76085 101.666 2.85753 101.955 2.95663 102.193C3.16088 102.682 3.51128 103.262 3.92533 103.868C4.7647 105.096 6.00031 106.625 7.29662 108.116C8.59682 109.612 9.97974 111.095 11.1262 112.237C11.6983 112.806 12.2208 113.3 12.6501 113.671C12.864 113.855 13.0657 114.019 13.2461 114.148C13.4008 114.26 13.6249 114.41 13.8648 114.488L14.4885 112.588C14.5636 112.613 14.5531 112.625 14.4134 112.524C14.2993 112.442 14.1469 112.321 13.9566 112.156C13.5777 111.829 13.0925 111.372 12.5373 110.82C11.4292 109.716 10.079 108.269 8.80612 106.804C7.52934 105.335 6.35186 103.874 5.57664 102.739C5.1834 102.164 4.92613 101.719 4.80215 101.422C4.73714 101.266 4.73956 101.222 4.7415 101.258C4.74367 101.297 4.7437 101.611 4.43505 101.836L3.25719 100.22Z" fill="#FFCA29"/>
</svg>
