<svg width="20" height="21" viewBox="0 0 20 21" fill="none" xmlns="http://www.w3.org/2000/svg">
<g clip-path="url(#clip0_6127_4594)">
<path d="M9.99834 3.56133C6.97251 3.56133 4.09917 3.29216 3.00167 6.10883C2.54834 7.27216 2.61417 8.78299 2.61417 10.9463C2.61417 12.8447 2.55334 14.6288 3.00167 15.783C4.09667 18.6013 6.99334 18.3313 9.99667 18.3313C12.8942 18.3313 15.8817 18.633 16.9925 15.783C17.4467 14.608 17.38 13.1197 17.38 10.9463C17.38 8.06133 17.5392 6.19883 16.14 4.80049C14.7233 3.38383 12.8075 3.56133 9.99501 3.56133H9.99834ZM9.33667 4.89216C15.6483 4.88216 16.4517 4.18049 16.0083 13.928C15.8508 17.3755 13.2258 16.9972 9.99917 16.9972C4.11584 16.9972 3.94667 16.8288 3.94667 10.943C3.94667 4.98883 4.41334 4.89549 9.33667 4.89049V4.89216ZM13.94 6.11799C13.7051 6.11799 13.4798 6.21132 13.3136 6.37745C13.1475 6.54357 13.0542 6.76889 13.0542 7.00383C13.0542 7.23876 13.1475 7.46408 13.3136 7.6302C13.4798 7.79633 13.7051 7.88966 13.94 7.88966C14.1749 7.88966 14.4003 7.79633 14.5664 7.6302C14.7325 7.46408 14.8258 7.23876 14.8258 7.00383C14.8258 6.76889 14.7325 6.54357 14.5664 6.37745C14.4003 6.21132 14.1749 6.11799 13.94 6.11799ZM9.99834 7.15383C9.50036 7.15388 9.00726 7.25202 8.54721 7.44264C8.08715 7.63326 7.66914 7.91263 7.31706 8.2648C6.60598 8.97603 6.20656 9.9406 6.20667 10.9463C6.20679 11.952 6.60641 12.9165 7.31765 13.6276C8.02888 14.3387 8.99345 14.7381 9.99917 14.738C11.0049 14.7379 11.9694 14.3383 12.6805 13.627C13.3915 12.9158 13.791 11.9512 13.7908 10.9455C13.7907 9.93977 13.3911 8.97528 12.6799 8.26421C11.9686 7.55313 11.0041 7.15372 9.99834 7.15383ZM9.99834 8.48466C13.2525 8.48466 13.2567 13.408 9.99834 13.408C6.74501 13.408 6.74001 8.48466 9.99834 8.48466Z" fill="#A7A7A7"/>
</g>
<defs>
<clipPath id="clip0_6127_4594">
<rect width="20" height="20" fill="white" transform="translate(0 0.945312)"/>
</clipPath>
</defs>
</svg>
