<svg width="24" height="24" viewBox="0 0 24 24" fill="none" xmlns="http://www.w3.org/2000/svg">
<path d="M12 14.1704C9.87 14.1704 8.13 12.4404 8.13 10.3004C8.13 8.16043 9.87 6.44043 12 6.44043C14.13 6.44043 15.87 8.17043 15.87 10.3104C15.87 12.4504 14.13 14.1704 12 14.1704ZM12 7.94043C10.7 7.94043 9.63 9.00043 9.63 10.3104C9.63 11.6204 10.69 12.6804 12 12.6804C13.31 12.6804 14.37 11.6204 14.37 10.3104C14.37 9.00043 13.3 7.94043 12 7.94043Z" fill="#818181"/>
<path d="M12 22.76C10.52 22.76 9.03 22.2 7.87 21.09C4.92 18.25 1.66 13.72 2.89 8.33C4 3.44 8.27 1.25 12 1.25C12 1.25 12 1.25 12.01 1.25C15.74 1.25 20.01 3.44 21.12 8.34C22.34 13.73 19.08 18.25 16.13 21.09C14.97 22.2 13.48 22.76 12 22.76ZM12 2.75C9.09 2.75 5.35 4.3 4.36 8.66C3.28 13.37 6.24 17.43 8.92 20C10.65 21.67 13.36 21.67 15.09 20C17.76 17.43 20.72 13.37 19.66 8.66C18.66 4.3 14.91 2.75 12 2.75Z" fill="#818181"/>
</svg>
