<svg width="37" height="42" viewBox="0 0 37 42" fill="none" xmlns="http://www.w3.org/2000/svg">
<path d="M37 30.0019C36.9895 27.2459 36.9422 12.7053 36.9349 11.1949C36.9349 11.1308 36.9296 11.0657 36.917 11.0038C36.8026 10.4429 36.4771 10.028 35.9951 9.73917C35.3882 9.37471 34.7708 9.0281 34.1566 8.67624C33.5528 8.33069 32.947 7.99039 32.3432 7.64484C31.709 7.28143 31.0769 6.91486 30.4448 6.5483C29.7466 6.14497 29.0483 5.73956 28.349 5.33729C27.677 4.95182 27.0008 4.5716 26.3277 4.18613C25.3397 3.62001 24.3516 3.05284 23.3646 2.48357C22.7546 2.13171 22.1477 1.7725 21.5376 1.42064C20.8646 1.03413 20.1905 0.649712 19.5143 0.269497C18.9147 -0.0666055 18.2942 -0.0939246 17.6852 0.219071C17.1927 0.472198 16.7213 0.767337 16.2425 1.04567C15.8497 1.27359 15.4602 1.50572 15.0675 1.73469C14.6045 2.00462 14.1414 2.27244 13.6783 2.54133C12.9601 2.9562 12.2409 3.37004 11.5227 3.78702C10.7961 4.20924 10.0726 4.63567 9.34708 5.0579C8.83993 5.35304 8.33068 5.64398 7.82142 5.93807C7.30062 6.23846 6.77877 6.5399 6.25797 6.84134C5.69726 7.16589 5.13971 7.49464 4.57901 7.81814C4.04456 8.12694 3.508 8.42942 2.97355 8.73821C2.3572 9.09532 1.74085 9.45243 1.12975 9.81794C0.964899 9.91667 0.802146 10.028 0.667745 10.1635C0.283444 10.55 0.107048 11.0311 0.108098 11.5709C0.113348 14.2513 0.168994 29.3896 0.168994 29.9095C0.168994 30.0555 0.176349 30.2025 0.200499 30.3454C0.281349 30.8222 0.489241 31.2371 0.887193 31.5217C1.18959 31.7381 1.51615 31.924 1.83955 32.1089C2.85176 32.6907 3.86921 33.2642 4.88351 33.8429C5.75187 34.3387 6.61706 34.8376 7.48541 35.3323C8.00307 35.6274 8.52493 35.9173 9.04258 36.2135C10.0065 36.7649 10.9672 37.3216 11.9311 37.8709C13.1302 38.5547 14.3325 39.2342 15.5326 39.917C16.2498 40.3245 16.9659 40.7341 17.681 41.1458C17.9372 41.2939 18.2102 41.3958 18.5042 41.4242C18.9126 41.463 19.2948 41.3632 19.6487 41.1616C20.0298 40.9442 20.4057 40.7194 20.7848 40.4978C22.0427 39.7636 23.3006 39.0294 24.5595 38.2952C25.8027 37.5695 27.0459 36.8448 28.2902 36.12C29.1848 35.5991 30.0805 35.0781 30.9751 34.5572C31.7279 34.1181 32.4797 33.677 33.2326 33.238C33.8395 32.884 34.4464 32.5332 35.0533 32.1782C35.4271 31.9597 35.8093 31.7539 36.1684 31.5133C36.7018 31.1562 37.001 30.6584 36.9989 29.9988M30.7913 28.9936C30.5551 29.1554 30.301 29.2909 30.0532 29.4348C29.0158 30.0355 27.9762 30.6342 26.9388 31.2361C25.9161 31.8284 24.8966 32.425 23.8739 33.0174C22.533 33.7946 21.1932 34.574 19.8471 35.3428C19.0124 35.8196 18.1629 35.8091 17.3177 35.3649C17.0279 35.2126 5.24576 28.4359 5.24576 28.4359V22.8965L18.4496 30.3895C18.4496 30.3895 18.5829 30.4368 18.6596 30.3916C18.8853 30.2561 19.1153 30.1301 19.3431 29.9988C20.138 29.5377 20.9318 29.0766 21.7256 28.6155C22.4889 28.1723 23.2533 27.7311 24.0167 27.2879C24.1773 27.1944 24.3359 27.0999 24.5207 26.9917C24.4535 26.9466 24.4136 26.9171 24.3695 26.8919C23.5557 26.4182 22.742 25.9446 21.9272 25.474C20.9769 24.9247 20.0235 24.3806 19.0733 23.8313C18.207 23.3314 17.3429 22.8272 16.4756 22.3283C15.3017 21.6519 14.1256 20.9797 12.9517 20.3043C11.9794 19.7445 11.0082 19.1815 10.038 18.6186C9.42373 18.2615 8.81262 17.9002 8.19732 17.5441C7.63137 17.2174 7.05912 16.9023 6.49632 16.5704C5.74452 16.1272 5.33711 15.454 5.29721 14.5927C5.25416 13.6495 5.65212 12.9027 6.45747 12.3965C6.92577 12.1024 7.41088 11.8356 7.89073 11.5594C8.42623 11.2506 8.96382 10.947 9.49828 10.6361C10.2658 10.1908 11.0302 9.74022 11.7978 9.29488C12.2724 9.0197 12.7501 8.75292 13.2247 8.47773C13.7245 8.18784 14.2201 7.89166 14.7189 7.60072C15.5368 7.12387 16.358 6.65333 17.1749 6.17229C17.6495 5.8929 18.1503 5.72695 18.7079 5.76266C18.8066 5.76896 18.9032 5.79732 19.0008 5.80152C19.2276 5.81307 19.4355 5.88765 19.6308 5.99269C20.0214 6.20275 20.4068 6.42331 20.7921 6.64283C21.4064 6.99363 22.0196 7.3476 22.6338 7.69946C23.5599 8.23092 24.486 8.76132 25.4121 9.29278C26.1125 9.694 26.8139 10.0942 27.5142 10.4954C27.9804 10.7622 28.4466 11.03 28.9129 11.2979C29.7224 11.7631 30.9814 12.4826 31.7909 12.9468V18.6837C30.5603 17.9768 18.5934 10.9575 18.5934 10.9575C18.5934 10.9575 18.5357 11.009 18.4517 11.0594C18.0117 11.3241 13.1313 14.1568 12.7165 14.3952C12.6934 14.4089 12.6756 14.432 12.6346 14.4698C12.7302 14.5297 29.9377 24.4426 30.4049 24.7209C30.6307 24.8554 30.8638 24.9888 31.057 25.1631C31.6198 25.6683 31.8865 26.3122 31.8539 27.0694C31.8193 27.8824 31.4644 28.5273 30.7924 28.9884" fill="#223F99"/>
</svg>
