<svg width="25" height="24" viewBox="0 0 25 24" fill="none" xmlns="http://www.w3.org/2000/svg">
<path d="M15.5 22.75H9.5C4.07 22.75 1.75 20.43 1.75 15V9C1.75 3.57 4.07 1.25 9.5 1.25H15.5C20.93 1.25 23.25 3.57 23.25 9V15C23.25 20.43 20.93 22.75 15.5 22.75ZM9.5 2.75C4.89 2.75 3.25 4.39 3.25 9V15C3.25 19.61 4.89 21.25 9.5 21.25H15.5C20.11 21.25 21.75 19.61 21.75 15V9C21.75 4.39 20.11 2.75 15.5 2.75H9.5Z" fill="#959595"/>
<path d="M14.6098 17.61C14.4198 17.61 14.2298 17.54 14.0798 17.39C13.7898 17.1 13.7898 16.62 14.0798 16.33L17.1198 13.29C17.4098 13 17.8898 13 18.1798 13.29C18.4698 13.58 18.4698 14.06 18.1798 14.35L15.1398 17.39C14.9998 17.53 14.8098 17.61 14.6098 17.61Z" fill="#959595"/>
<path d="M17.6501 14.5701H7.3501C6.9401 14.5701 6.6001 14.2301 6.6001 13.8201C6.6001 13.4101 6.9401 13.0701 7.3501 13.0701H17.6601C18.0701 13.0701 18.4101 13.4101 18.4101 13.8201C18.4101 14.2301 18.0701 14.5701 17.6501 14.5701Z" fill="#959595"/>
<path d="M7.35004 10.9301C7.16004 10.9301 6.97004 10.8601 6.82004 10.7101C6.53004 10.4201 6.53004 9.94008 6.82004 9.65008L9.86004 6.61008C10.15 6.32008 10.63 6.32008 10.92 6.61008C11.21 6.90008 11.21 7.38008 10.92 7.67008L7.88004 10.7101C7.73004 10.8601 7.54004 10.9301 7.35004 10.9301Z" fill="#959595"/>
<path d="M17.6501 10.9302H7.3501C6.9401 10.9302 6.6001 10.5902 6.6001 10.1802C6.6001 9.77018 6.9401 9.43018 7.3501 9.43018H17.6601C18.0701 9.43018 18.4101 9.77018 18.4101 10.1802C18.4101 10.5902 18.0701 10.9302 17.6501 10.9302Z" fill="#959595"/>
</svg>
